<svg width="76" height="75" viewBox="0 0 76 75" fill="none" xmlns="http://www.w3.org/2000/svg">
<path d="M62.3164 38.2794L53.5859 13.6143C52.5157 10.3618 50.4547 7.5256 47.6916 5.50324C44.9286 3.48088 41.602 2.37371 38.1781 2.33689C34.7542 2.30006 31.4046 3.33543 28.5987 5.2979C25.7928 7.26036 23.6712 10.0516 22.5313 13.2803L13.8857 37.7432C12.4201 41.6226 11.9119 45.7983 12.4043 49.9159C12.8967 54.0336 14.3751 57.9717 16.7141 61.3961C19.0531 64.8205 22.1836 67.6302 25.8401 69.5866C29.4966 71.5431 33.5711 72.5887 37.7178 72.6346C41.8645 72.6805 45.9612 71.7254 49.66 69.8503C53.3589 67.9753 56.5509 65.2356 58.9652 61.8638C61.3794 58.492 62.9446 54.5876 63.528 50.4819C64.1114 46.3761 63.6958 42.1902 62.3164 38.2794ZM38 58.5938C35.6823 58.5938 33.4166 57.9065 31.4894 56.6189C29.5623 55.3312 28.0603 53.501 27.1733 51.3596C26.2863 49.2183 26.0543 46.8621 26.5064 44.5888C26.9586 42.3156 28.0747 40.2276 29.7136 38.5887C31.3525 36.9498 33.4406 35.8337 35.7138 35.3815C37.987 34.9293 40.3433 35.1614 42.4846 36.0484C44.6259 36.9353 46.4561 38.4373 47.7438 40.3645C49.0315 42.2916 49.7188 44.5573 49.7188 46.8751C49.7188 49.9831 48.4841 52.9638 46.2864 55.1615C44.0887 57.3592 41.108 58.5938 38 58.5938Z" fill="#55B76B"/>
</svg>
