<svg width="76" height="75" viewBox="0 0 76 75" fill="none" xmlns="http://www.w3.org/2000/svg">
<path d="M69.4326 63.4859C62.8613 60.2603 59.0938 53.355 59.0938 44.5308V39.4595C59.0962 38.5203 58.8155 37.6022 58.2881 36.825C57.7608 36.0479 57.0114 35.4478 56.1377 35.1031L47.7441 31.7457C47.1691 31.5155 46.7085 31.067 46.4632 30.4983C46.2178 29.9295 46.2075 29.2868 46.4346 28.7105L52.9736 12.108C54.4063 8.43414 52.6484 4.16265 48.9395 2.7857C47.2129 2.14363 45.3034 2.20472 43.6215 2.95584C41.9396 3.70695 40.6196 5.0881 39.9453 6.8023L33.3857 23.4605C33.2727 23.7478 33.104 24.0099 32.8893 24.2318C32.6746 24.4537 32.4182 24.631 32.1348 24.7535C31.8514 24.876 31.5466 24.9413 31.2379 24.9456C30.9292 24.95 30.6227 24.8933 30.3359 24.7789L21.9189 21.4097C21.0598 21.0619 20.1165 20.9782 19.2095 21.1692C18.3025 21.3602 17.4731 21.8173 16.8271 22.482C10.6602 28.8277 7.53125 36.2427 7.53125 44.5308C7.51513 52.9986 10.787 61.1419 16.6572 67.2447C16.879 67.4751 17.1453 67.658 17.4399 67.7824C17.7345 67.9068 18.0513 67.97 18.3711 67.9683H68.4688C69.0663 67.9694 69.6416 67.7423 70.0773 67.3334C70.5129 66.9244 70.7759 66.3645 70.8125 65.7681C70.8333 65.294 70.7134 64.8244 70.4678 64.4183C70.2223 64.0121 69.8621 63.6878 69.4326 63.4859ZM34.2236 63.2808C30.7563 59.954 28.2935 55.7199 27.1162 51.0611C26.9742 50.4743 26.6167 49.9623 26.1146 49.6269C25.6126 49.2915 25.0028 49.1571 24.4062 49.2505C24.0886 49.3079 23.7861 49.4303 23.5179 49.61C23.2498 49.7897 23.0216 50.0229 22.8478 50.295C22.6739 50.567 22.5582 50.872 22.5077 51.1909C22.4573 51.5098 22.4733 51.8356 22.5547 52.148C23.5782 56.1838 25.4079 59.9708 27.9336 63.2808H19.3789C14.7583 58.1297 12.2078 51.4506 12.2187 44.5308C12.1898 40.8632 12.9628 37.2337 14.4834 33.8961L54.8545 50.0474C55.7334 55.3384 57.9453 59.8619 61.2676 63.2867L34.2236 63.2808Z" fill="#55B76B"/>
</svg>
