<svg width="76" height="75" viewBox="0 0 76 75" fill="none" xmlns="http://www.w3.org/2000/svg">
<path d="M9.875 30.4688C9.875 29.8471 10.1219 29.251 10.5615 28.8115C11.001 28.3719 11.5971 28.125 12.2187 28.125H16.9062C17.5278 28.125 18.124 28.3719 18.5635 28.8115C19.0031 29.251 19.25 29.8471 19.25 30.4688C19.25 31.0904 19.0031 31.6865 18.5635 32.126C18.124 32.5656 17.5278 32.8125 16.9062 32.8125H12.2187C11.5971 32.8125 11.001 32.5656 10.5615 32.126C10.1219 31.6865 9.875 31.0904 9.875 30.4688ZM21.4268 17.2119C21.8665 17.6517 22.463 17.8988 23.085 17.8988C23.7069 17.8988 24.3034 17.6517 24.7432 17.2119C25.1829 16.7721 25.43 16.1757 25.43 15.5537C25.43 14.9318 25.1829 14.3353 24.7432 13.8955L21.4268 10.582C20.9836 10.161 20.3936 9.92982 19.7824 9.93764C19.1713 9.94547 18.5874 10.1917 18.1552 10.6239C17.723 11.0561 17.4767 11.64 17.4689 12.2512C17.4611 12.8624 17.6923 13.4524 18.1133 13.8955L21.4268 17.2119ZM38 11.7188C38.6216 11.7188 39.2177 11.4718 39.6573 11.0323C40.0968 10.5927 40.3437 9.9966 40.3437 9.375V4.6875C40.3437 4.0659 40.0968 3.46976 39.6573 3.03022C39.2177 2.59068 38.6216 2.34375 38 2.34375C37.3784 2.34375 36.7823 2.59068 36.3427 3.03022C35.9032 3.46976 35.6562 4.0659 35.6562 4.6875V9.375C35.6562 9.9966 35.9032 10.5927 36.3427 11.0323C36.7823 11.4718 37.3784 11.7188 38 11.7188ZM52.915 17.8975C53.2229 17.8977 53.5278 17.8373 53.8123 17.7197C54.0969 17.602 54.3554 17.4295 54.5732 17.2119L57.8867 13.8955C58.3077 13.4524 58.5389 12.8624 58.5311 12.2512C58.5233 11.64 58.277 11.0561 57.8448 10.6239C57.4126 10.1917 56.8287 9.94547 56.2175 9.93764C55.6064 9.92982 55.0164 10.161 54.5732 10.582L51.2568 13.8955C50.9287 14.2233 50.7052 14.6411 50.6146 15.096C50.524 15.5508 50.5704 16.0224 50.748 16.4509C50.9255 16.8794 51.2262 17.2455 51.6119 17.5031C51.9977 17.7606 52.4512 17.8978 52.915 17.8975ZM56.75 30.4688C56.75 31.0904 56.9969 31.6865 57.4365 32.126C57.876 32.5656 58.4721 32.8125 59.0937 32.8125H63.7812C64.4028 32.8125 64.999 32.5656 65.4385 32.126C65.8781 31.6865 66.125 31.0904 66.125 30.4688C66.125 29.8471 65.8781 29.251 65.4385 28.8115C64.999 28.3719 64.4028 28.125 63.7812 28.125H59.0937C58.4721 28.125 57.876 28.3719 57.4365 28.8115C56.9969 29.251 56.75 29.8471 56.75 30.4688ZM26.2812 32.8125C26.9028 32.8125 27.499 32.5656 27.9385 32.126C28.3781 31.6865 28.625 31.0904 28.625 30.4688C28.625 27.9823 29.6127 25.5978 31.3709 23.8396C33.129 22.0815 35.5136 21.0938 38 21.0938C40.4864 21.0938 42.871 22.0815 44.6291 23.8396C46.3873 25.5978 47.375 27.9823 47.375 30.4688C47.375 31.0904 47.6219 31.6865 48.0615 32.126C48.501 32.5656 49.0971 32.8125 49.7187 32.8125C50.3403 32.8125 50.9365 32.5656 51.376 32.126C51.8156 31.6865 52.0625 31.0904 52.0625 30.4688C52.0625 26.7391 50.5809 23.1623 47.9437 20.5251C45.3065 17.8878 41.7296 16.4062 38 16.4062C34.2704 16.4062 30.6935 17.8878 28.0563 20.5251C25.4191 23.1623 23.9375 26.7391 23.9375 30.4688C23.9375 31.0904 24.1844 31.6865 24.624 32.126C25.0635 32.5656 25.6596 32.8125 26.2812 32.8125ZM42.4531 39.8438H33.5469C33.2793 39.8437 33.0197 39.9352 32.8113 40.1031C32.6029 40.2709 32.4582 40.5051 32.4014 40.7666L30.5644 49.2188H45.4355L43.5986 40.7666C43.5418 40.5051 43.3971 40.2709 43.1887 40.1031C42.9803 39.9352 42.7207 39.8437 42.4531 39.8438ZM9.80176 54.4922L5.48047 62.127C5.23304 62.5639 5.13251 63.0689 5.1937 63.5673C5.25488 64.0657 5.47454 64.5313 5.82031 64.8955C6.04838 65.1301 6.32187 65.3158 6.6241 65.4413C6.92632 65.5667 7.25093 65.6292 7.57812 65.625H21.2568C21.5244 65.6251 21.784 65.5336 21.9924 65.3657C22.2008 65.1978 22.3455 64.9636 22.4023 64.7021L24.7461 53.9062H10.8213C10.6148 53.9054 10.4117 53.9592 10.2327 54.0621C10.0537 54.165 9.905 54.3134 9.80176 54.4922ZM70.5078 62.1094L66.1982 54.4922C66.095 54.3134 65.9463 54.165 65.7673 54.0621C65.5882 53.9592 65.3852 53.9054 65.1787 53.9062H51.251L53.5947 64.7021C53.6516 64.9636 53.7962 65.1978 54.0046 65.3657C54.213 65.5336 54.4726 65.6251 54.7402 65.625H68.3984C68.7256 65.6292 69.0502 65.5667 69.3525 65.4413C69.6547 65.3158 69.9282 65.1301 70.1562 64.8955C70.5058 64.534 70.7298 64.0698 70.7952 63.5712C70.8606 63.0727 70.764 62.5663 70.5195 62.127L70.5078 62.1094ZM62.2256 47.4609L58.5869 41.0156C58.3817 40.653 58.0835 40.3516 57.723 40.1425C57.3625 39.9334 56.9528 39.8242 56.5361 39.8262H49.6484C49.4734 39.8261 49.3005 39.8653 49.1426 39.9408C48.9846 40.0163 48.8456 40.1263 48.7357 40.2625C48.6258 40.3988 48.5479 40.558 48.5076 40.7284C48.4673 40.8988 48.4657 41.076 48.5029 41.2471L50.2314 49.2012H61.2031C61.4069 49.2008 61.6071 49.1472 61.7839 49.0458C61.9606 48.9444 62.1079 48.7987 62.2111 48.6229C62.3144 48.4472 62.37 48.2476 62.3725 48.0439C62.3751 47.8401 62.3244 47.6392 62.2256 47.4609ZM26.3516 39.8438H19.4551C19.0384 39.8418 18.6287 39.951 18.2682 40.1601C17.9077 40.3691 17.6095 40.6705 17.4043 41.0332L13.7744 47.4609C13.6712 47.6396 13.6171 47.8424 13.6174 48.0488C13.6177 48.2551 13.6725 48.4577 13.7763 48.6361C13.8801 48.8145 14.0291 48.9623 14.2083 49.0646C14.3875 49.1669 14.5905 49.2201 14.7969 49.2188H25.7686L27.4971 41.2646C27.5343 41.0936 27.5327 40.9163 27.4924 40.746C27.4521 40.5756 27.3742 40.4164 27.2643 40.2801C27.1544 40.1438 27.0154 40.0339 26.8574 39.9584C26.6995 39.8829 26.5266 39.8437 26.3516 39.8438ZM46.4551 53.9062H29.5449L27.3066 64.2041C27.2694 64.3752 27.271 64.5524 27.3113 64.7228C27.3516 64.8931 27.4295 65.0523 27.5394 65.1886C27.6493 65.3249 27.7883 65.4349 27.9463 65.5104C28.1042 65.5859 28.2771 65.6251 28.4521 65.625H47.5478C47.7229 65.6251 47.8958 65.5859 48.0537 65.5104C48.2117 65.4349 48.3507 65.3249 48.4606 65.1886C48.5704 65.0523 48.6484 64.8931 48.6887 64.7228C48.729 64.5524 48.7306 64.3752 48.6934 64.2041L46.4551 53.9062Z" fill="#55B76B"/>
</svg>
