<svg width="12" height="13" viewBox="0 0 12 13" fill="none" xmlns="http://www.w3.org/2000/svg">
<path d="M6.28556 0.345703L4.55191 2.07935H2.09547V4.5358L0.361816 6.26945L2.09547 8.0031V10.4595H4.55191L6.28556 12.1932L6.80932 11.6694V9.32298L8.50631 11.02L9.25005 10.2815L6.80932 7.84073V6.79321H7.85685L10.2976 9.23394L11.0361 8.4902L9.33909 6.79321H11.5232V5.74569H9.33909L11.0361 4.0487L10.2976 3.30496L7.85685 5.74569H6.80932V4.69816L9.25005 2.25743L8.50631 1.51893L6.80932 3.21592V0.869465M5.7618 3.17402V4.24249C4.83998 4.48342 4.19051 5.3162 4.19051 6.26945C4.19176 6.73342 4.34659 7.18391 4.63085 7.55061C4.91511 7.9173 5.31279 8.17955 5.7618 8.29641V9.36488C5.03007 9.24119 4.36573 8.86255 3.88641 8.296C3.4071 7.72945 3.14374 7.01155 3.14299 6.26945C3.14299 4.73483 4.24813 3.42542 5.7618 3.17402Z" fill="#55B76B"/>
</svg>
