<svg width="76" height="75" viewBox="0 0 76 75" fill="none" xmlns="http://www.w3.org/2000/svg">
<path d="M73.1562 23.4375V30.4688C73.1562 31.0904 72.9093 31.6865 72.4698 32.126C72.0302 32.5656 71.4341 32.8125 70.8125 32.8125C70.1909 32.8125 69.5948 32.5656 69.1552 32.126C68.7157 31.6865 68.4688 31.0904 68.4688 30.4688V23.4375C68.4688 22.8159 68.7157 22.2198 69.1552 21.7802C69.5948 21.3407 70.1909 21.0938 70.8125 21.0938C71.4341 21.0938 72.0302 21.3407 72.4698 21.7802C72.9093 22.2198 73.1562 22.8159 73.1562 23.4375ZM5.1875 21.0938C4.5659 21.0938 3.96976 21.3407 3.53022 21.7802C3.09068 22.2198 2.84375 22.8159 2.84375 23.4375V30.4688C2.84375 31.0904 3.09068 31.6865 3.53022 32.126C3.96976 32.5656 4.5659 32.8125 5.1875 32.8125C5.8091 32.8125 6.40524 32.5656 6.84478 32.126C7.28432 31.6865 7.53125 31.0904 7.53125 30.4688V23.4375C7.53125 22.8159 7.28432 22.2198 6.84478 21.7802C6.40524 21.3407 5.8091 21.0938 5.1875 21.0938ZM63.7812 18.75V60.9375C63.7812 62.1807 63.2874 63.373 62.4083 64.2521C61.5292 65.1311 60.337 65.625 59.0938 65.625H54.4062C53.163 65.625 51.9708 65.1311 51.0917 64.2521C50.2126 63.373 49.7188 62.1807 49.7188 60.9375V58.5938H26.2812V60.9375C26.2812 62.1807 25.7874 63.373 24.9083 64.2521C24.0292 65.1311 22.837 65.625 21.5938 65.625H16.9062C15.663 65.625 14.4708 65.1311 13.5917 64.2521C12.7126 63.373 12.2188 62.1807 12.2188 60.9375V18.75C12.2188 16.2636 13.2065 13.879 14.9646 12.1209C16.7228 10.3627 19.1073 9.375 21.5938 9.375H54.4062C56.8927 9.375 59.2772 10.3627 61.0354 12.1209C62.7935 13.879 63.7812 16.2636 63.7812 18.75ZM30.9688 43.3594C30.9688 42.6641 30.7626 41.9843 30.3763 41.4062C29.99 40.8281 29.4409 40.3775 28.7985 40.1114C28.1561 39.8453 27.4492 39.7757 26.7673 39.9113C26.0853 40.047 25.4589 40.3818 24.9672 40.8735C24.4755 41.3651 24.1407 41.9915 24.0051 42.6735C23.8694 43.3555 23.939 44.0623 24.2051 44.7047C24.4712 45.3471 24.9218 45.8962 25.4999 46.2825C26.0781 46.6688 26.7578 46.875 27.4531 46.875C28.3855 46.875 29.2797 46.5046 29.939 45.8453C30.5984 45.186 30.9688 44.2918 30.9688 43.3594ZM52.0625 43.3594C52.0625 42.6641 51.8563 41.9843 51.47 41.4062C51.0837 40.8281 50.5346 40.3775 49.8922 40.1114C49.2498 39.8453 48.543 39.7757 47.861 39.9113C47.179 40.047 46.5526 40.3818 46.061 40.8735C45.5693 41.3651 45.2345 41.9915 45.0988 42.6735C44.9632 43.3555 45.0328 44.0623 45.2989 44.7047C45.565 45.3471 46.0156 45.8962 46.5937 46.2825C47.1718 46.6688 47.8516 46.875 48.5469 46.875C49.4793 46.875 50.3735 46.5046 51.0328 45.8453C51.6921 45.186 52.0625 44.2918 52.0625 43.3594ZM59.0938 21.0938H16.9062V32.8125H59.0938V21.0938Z" fill="#55B76B"/>
</svg>
