<svg width="42" height="36" viewBox="0 0 42 36" fill="none" xmlns="http://www.w3.org/2000/svg">
<path d="M23.4502 35.4395C24.5413 35.1162 25.3935 34.6988 26.0882 34.2408C26.0882 34.2408 26.0754 34.255 26.0691 34.2621C26.1681 34.1948 26.2394 34.1297 26.3385 34.0624C26.4706 33.9726 26.6091 33.8757 26.7262 33.7739C26.8305 33.6863 26.9198 33.5866 27.0241 33.499C27.2432 33.2833 27.4473 33.0555 27.6172 32.8369C27.6809 32.7658 27.7447 32.6946 27.7871 32.6184C27.8741 32.4924 27.9333 32.3686 28.0064 32.2437C28.0551 32.1604 28.1102 32.07 28.145 31.9879C28.2043 31.864 28.2496 31.7413 28.3012 31.6114C28.3286 31.5232 28.3698 31.4339 28.3971 31.3457C28.4349 31.2169 28.4738 31.1013 28.4977 30.9736C28.525 30.8853 28.5385 30.7982 28.5519 30.711C28.5694 30.5905 28.6008 30.4688 28.6044 30.3493C28.6115 30.2693 28.6185 30.1892 28.6256 30.1092C28.6292 29.9897 28.6467 29.8691 28.644 29.7568C28.6446 29.6838 28.6401 29.6312 28.6407 29.5583C28.6341 29.3204 28.6222 29.1027 28.5964 28.8862C28.5918 28.8336 28.5798 28.7749 28.5752 28.7223C28.5597 28.6241 28.5453 28.5391 28.5234 28.4481C28.5113 28.3894 28.4981 28.3176 28.486 28.2589C28.4653 28.1811 28.4521 28.1092 28.4313 28.0314C28.4192 27.9727 28.3996 27.908 28.3812 27.8565C28.3616 27.7917 28.3431 27.7402 28.331 27.6815C28.3125 27.63 28.3016 27.5845 28.2831 27.5329C28.2722 27.4874 28.2549 27.449 28.2451 27.4167C28.2341 27.3712 28.2179 27.3459 28.2006 27.3075C28.192 27.2883 28.1833 27.2691 28.1746 27.2499C28.1573 27.2115 28.1487 27.1923 28.1487 27.1923C34.1827 28.2927 34.6225 26.5894 36.1215 23.2274C36.244 22.9463 36.3729 22.6581 36.522 22.3617C37.3138 20.6841 38.01 19.9212 38.6562 19.3875C39.0213 19.0809 39.3719 18.8483 39.719 18.5762C39.7509 18.5406 39.8042 18.51 39.8436 18.4804C39.8882 18.4306 39.9415 18.4 39.9862 18.3501C40.0308 18.3003 40.0829 18.2565 40.1415 18.2056C40.1797 18.1629 40.2244 18.113 40.2627 18.0703C40.32 18.0062 40.3774 17.9422 40.4348 17.8781C40.4731 17.8354 40.5177 17.7855 40.556 17.7428C40.6261 17.6645 40.6813 17.5741 40.7503 17.4827C40.7885 17.4399 40.8193 17.3912 40.85 17.3424C40.8564 17.3353 40.8691 17.3211 40.8755 17.314C40.9614 17.1748 41.0536 17.0285 41.1436 16.856C42.0424 15.2031 38.7062 14.0784 34.2675 14.5164C33.824 14.5641 33.3741 14.619 32.905 14.6952C31.9809 14.8466 31.0207 15.067 30.0599 15.3603C29.5763 15.5105 29.0938 15.6739 28.6137 15.8636C28.3768 15.9549 28.1335 16.0533 27.8977 16.1577C27.1829 16.465 26.4652 16.8189 25.7734 17.2303L25.7607 17.2446C25.4409 17.4284 25.1477 17.5969 24.8546 17.7654C24.781 17.8043 24.7149 17.8492 24.6414 17.888C24.361 18.0423 24.0945 18.1955 23.8344 18.3416C23.7874 18.3651 23.748 18.3946 23.7075 18.411C23.4804 18.5347 23.2597 18.6512 23.0528 18.7666C23.0059 18.7901 22.9526 18.8208 22.9057 18.8443C22.6786 18.9679 22.4643 19.0773 22.2563 19.1796C22.2094 19.2031 22.1624 19.2267 22.1155 19.2502C21.9342 19.3371 21.7529 19.4241 21.5918 19.5029C21.5652 19.5182 21.5449 19.5264 21.5183 19.5417C21.337 19.6287 21.1684 19.7014 21.0137 19.773C20.9732 19.7894 20.9326 19.8058 20.8921 19.8222C20.7374 19.8939 20.5891 19.9584 20.4536 20.0087C20.4409 20.0229 20.427 20.024 20.4131 20.0251C20.2914 20.0743 20.1698 20.1235 20.0609 20.1584C20.0342 20.1737 20.0001 20.183 19.9798 20.1912C19.8646 20.2333 19.7557 20.2683 19.6607 20.3022C19.6404 20.3104 19.6201 20.3186 19.5923 20.3207C19.5037 20.3475 19.429 20.3732 19.3532 20.3857C19.3468 20.3928 19.319 20.395 19.3051 20.396C19.2229 20.4157 19.1545 20.4343 19.0787 20.4468C19.0648 20.4479 19.0445 20.4561 19.0306 20.4571C18.9686 20.4686 18.9067 20.48 18.8511 20.4844C18.7955 20.4887 18.7399 20.493 18.6982 20.4962C18.6982 20.4962 18.6843 20.4973 18.6705 20.4984C18.6288 20.5016 18.5935 20.4978 18.5581 20.4939C18.5228 20.49 18.5014 20.4851 18.4725 20.4741C18.4574 20.462 18.4221 20.4581 18.4071 20.446C18.3481 20.4109 18.3371 20.3654 18.3296 20.3593C18.8422 20.2201 19.2884 19.8807 19.5113 19.3865C19.6994 18.9745 19.6959 18.531 19.5493 18.1318C21.0689 17.7486 23.5495 16.9132 25.0997 15.2693C25.2017 15.1554 25.1944 14.9904 25.0741 14.8938C24.9538 14.7971 24.7795 14.8041 24.6775 14.918C23.1911 16.4907 20.7082 17.2998 19.2697 17.6502C19.0888 17.4192 18.8482 17.226 18.5438 17.1039C18.174 16.9539 17.7804 16.9315 17.4162 17.0062C16.7049 15.823 15.506 13.4524 15.7003 11.2582C15.7156 11.1113 15.5994 10.9813 15.4442 10.9669C15.2891 10.9524 15.1517 11.0625 15.1365 11.2094C14.9322 13.5302 16.1206 15.9413 16.8804 17.2002C16.5531 17.378 16.283 17.6507 16.1181 18.0079C15.8952 18.5021 15.942 19.0416 16.184 19.493C16.1712 19.5073 16.1446 19.5226 16.1243 19.5308C16.1243 19.5308 16.1243 19.5308 16.1168 19.5247C16.0942 19.5066 16.0653 19.4956 16.0352 19.4715C16.0277 19.4654 16.0202 19.4594 16.0052 19.4473C15.9826 19.4292 15.9525 19.4051 15.9149 19.3749C15.8999 19.3628 15.8849 19.3507 15.8687 19.3255C15.8386 19.3013 15.8138 19.2569 15.775 19.2135C15.7525 19.1954 15.7438 19.1762 15.7276 19.151C15.6878 19.0945 15.6543 19.0309 15.6132 18.9612C15.5982 18.9491 15.5895 18.9299 15.5809 18.9107C15.5237 18.8158 15.4729 18.7138 15.4059 18.5866C15.3897 18.5613 15.3799 18.529 15.3701 18.4966C15.3193 18.3946 15.2748 18.2855 15.2229 18.1703C15.2044 18.1187 15.1859 18.0672 15.1599 18.0096C15.108 17.8944 15.0613 17.759 15.0145 17.6235C14.9885 17.5659 14.9765 17.5073 14.9505 17.4497C14.8853 17.2627 14.8126 17.0696 14.7451 16.8563C14.7365 16.8371 14.7342 16.8108 14.718 16.7856C14.6407 16.5399 14.5548 16.275 14.4666 15.9838C14.4458 15.906 14.4251 15.8281 14.4043 15.7503C14.3432 15.5298 14.2735 15.2902 14.2101 15.0434C14.1796 14.9332 14.149 14.823 14.1248 14.7057C14.0615 14.4589 13.9958 14.1858 13.9301 13.9128C13.906 13.7954 13.8754 13.6852 13.8437 13.5618C13.7452 13.1522 13.6456 12.7295 13.5425 12.2672C13.0382 10.0016 12.0826 7.93663 10.9523 6.19654C10.5802 5.61615 10.1762 5.07135 9.76927 4.57315C9.51088 4.25547 9.25477 3.9641 8.99228 3.67985C8.83734 3.50645 8.68354 3.34622 8.52336 3.1931C6.15783 0.840414 3.78758 -0.0349223 3.23864 1.45827C3.17125 1.64896 3.11661 1.82542 3.06835 1.99475C3.05264 2.05558 3.04331 2.1093 3.02646 2.15697C3.00028 2.25835 2.97525 2.37289 2.95545 2.46716C2.93974 2.52799 2.93793 2.58774 2.92223 2.64857C2.9088 2.73571 2.90176 2.81574 2.89471 2.89577C2.8929 2.95552 2.88471 3.02239 2.8829 3.08214C2.88223 3.15505 2.88042 3.2148 2.87975 3.2877C2.87794 3.34745 2.88365 3.41324 2.88184 3.47299C2.8864 3.52562 2.88345 3.57221 2.88802 3.62484C2.91818 4.05301 2.97384 4.4527 2.9999 4.9143C3.03537 5.72619 2.92644 6.72815 2.18505 8.42176C2.05093 8.73024 1.92205 9.01844 1.79203 9.29349C0.250221 12.6456 -0.755473 14.1147 4.24641 17.5074C4.24641 17.5074 4.23366 17.5217 4.19949 17.5309C4.16533 17.5402 4.1184 17.5638 4.05758 17.5884C4.05758 17.5884 4.05758 17.5884 4.0512 17.5955C3.47833 17.8454 1.84125 18.6483 0.889802 20.2589C0.120532 21.5506 -0.190293 23.3697 0.896817 25.8218C0.99094 26.0198 1.07869 26.225 1.18785 26.435C1.29701 26.6451 1.4114 26.8349 1.53217 27.0176C1.53217 27.0176 1.53217 27.0176 1.53969 27.0236C1.65295 27.2003 1.77895 27.3627 1.91771 27.5108C5.50325 31.59 13.1262 25.4467 14.3908 24.3814L12.1138 29.9829C12.0041 30.2498 12.1426 30.5569 12.4181 30.6679C12.701 30.785 13.0265 30.667 13.1577 30.4051L15.936 24.7778C15.936 24.7778 16.0131 36.8724 22.735 35.6607C22.735 35.6607 22.7489 35.6596 22.7628 35.6585C22.9828 35.6149 23.2092 35.5642 23.4484 35.4992L23.4502 35.4395Z" fill="#66C27B"/>
</svg>
