<svg width="10" height="12" viewBox="0 0 10 12" fill="none" xmlns="http://www.w3.org/2000/svg">
<path d="M2.75 10C2.75 10.4 2.4 10.75 2 10.75C1.6 10.75 1.25 10.4 1.25 10C1.25 9.6 1.6 9.25 2 9.25C2.4 9.25 2.75 9.6 2.75 10ZM8 9.25C7.6 9.25 7.25 9.6 7.25 10C7.25 10.4 7.6 10.75 8 10.75C8.4 10.75 8.75 10.4 8.75 10C8.75 9.6 8.4 9.25 8 9.25ZM10 10C10 11.1 9.1 12 8 12H2C0.9 12 0 11.1 0 10C0 8.9 0.9 8 2 8H2.15C1.15 7.2 0.5 5.9 0.5 4.5C0.5 2 2.5 0 5 0C7.5 0 9.5 2 9.5 4.5C9.5 5.9 8.85 7.2 7.85 8H8C9.1 8 10 8.9 10 10ZM5 8C6.95 8 8.5 6.45 8.5 4.5C8.5 2.55 6.95 1 5 1C3.05 1 1.5 2.55 1.5 4.5C1.5 6.45 3.05 8 5 8ZM9 10C9 9.45 8.55 9 8 9H2C1.45 9 1 9.45 1 10C1 10.55 1.45 11 2 11H8C8.55 11 9 10.55 9 10ZM5.45 3.15C5.45 2.65 5.85 2.25 6.35 2.25C6.85 2.25 7.25 2.65 7.25 3.15C7.25 3.65 6.85 4.05 6.35 4.05C5.85 4.05 5.45 3.65 5.45 3.15ZM2.75 3.15C2.75 2.65 3.15 2.25 3.65 2.25C4.15 2.25 4.55 2.65 4.55 3.15C4.55 3.65 4.15 4.05 3.65 4.05C3.15 4.05 2.75 3.65 2.75 3.15ZM3.65 5.1C3.65 5.4 3.4 5.65 3.1 5.65C2.8 5.65 2.55 5.4 2.55 5.1C2.55 4.8 2.75 4.5 3.05 4.5C3.4 4.5 3.65 4.8 3.65 5.1ZM5.9 6.35C5.9 6.85 5.5 7.25 5 7.25C4.5 7.25 4.1 6.85 4.1 6.35C4.1 5.85 4.5 5.45 5 5.45C5.5 5.45 5.9 5.85 5.9 6.35ZM7.5 5.1C7.5 5.4 7.25 5.65 6.95 5.65C6.65 5.65 6.4 5.4 6.4 5.1C6.4 4.8 6.6 4.5 6.95 4.5C7.25 4.5 7.5 4.8 7.5 5.1Z" fill="#333333"/>
</svg>
