<svg width="76" height="75" viewBox="0 0 76 75" fill="none" xmlns="http://www.w3.org/2000/svg">
<path d="M51.4766 13.9896C47.8578 9.81019 43.7848 6.04676 39.333 2.76887C38.9389 2.49281 38.4694 2.34473 37.9883 2.34473C37.5071 2.34473 37.0376 2.49281 36.6436 2.76887C32.2 6.04813 28.1349 9.81151 24.5234 13.9896C16.4697 23.2386 12.2188 32.9886 12.2188 42.1878C12.2188 49.0254 14.935 55.583 19.7699 60.4179C24.6048 65.2528 31.1624 67.9691 38 67.9691C44.8376 67.9691 51.3952 65.2528 56.2301 60.4179C61.065 55.583 63.7812 49.0254 63.7812 42.1878C63.7812 32.9886 59.5303 23.2386 51.4766 13.9896ZM54.3623 44.9241C53.7546 48.3188 52.1214 51.4457 49.6826 53.884C47.2438 56.3223 44.1165 57.9548 40.7217 58.5618C40.5967 58.5819 40.4704 58.5927 40.3438 58.5941C39.7558 58.5939 39.1895 58.3728 38.7569 57.9746C38.3244 57.5764 38.0573 57.0302 38.0087 56.4444C37.96 55.8585 38.1333 55.2757 38.4942 54.8116C38.8551 54.3475 39.3772 54.036 39.957 53.9388C44.8115 53.1214 48.9307 49.0023 49.7539 44.139C49.858 43.5259 50.2014 42.9794 50.7085 42.6195C51.2156 42.2596 51.845 42.1159 52.458 42.22C53.0711 42.3242 53.6176 42.6676 53.9775 43.1747C54.3374 43.6818 54.4811 44.3111 54.377 44.9241H54.3623Z" fill="#55B76B"/>
</svg>
