<svg width="14" height="20" viewBox="0 0 14 20" fill="none" xmlns="http://www.w3.org/2000/svg">
<path d="M13.25 3.1252H10.0625C9.91905 2.41877 9.53579 1.78366 8.97766 1.32747C8.41953 0.871278 7.72085 0.62207 7 0.62207C6.27915 0.62207 5.58047 0.871278 5.02234 1.32747C4.46421 1.78366 4.08095 2.41877 3.9375 3.1252H0.75C0.58424 3.1252 0.425269 3.19105 0.308058 3.30826C0.190848 3.42547 0.125 3.58444 0.125 3.7502C0.125 3.91596 0.190848 4.07493 0.308058 4.19214C0.425269 4.30935 0.58424 4.3752 0.75 4.3752H3.9375C4.07299 5.03444 4.41769 5.63232 4.92031 6.07989C4.04981 6.47888 3.312 7.11917 2.79439 7.9248C2.27678 8.73043 2.00108 9.66762 2 10.6252V15.6252C2 15.9567 2.1317 16.2747 2.36612 16.5091C2.60054 16.7435 2.91848 16.8752 3.25 16.8752H4.5C4.5 17.5382 4.76339 18.1741 5.23223 18.643C5.70107 19.1118 6.33696 19.3752 7 19.3752C7.66304 19.3752 8.29893 19.1118 8.76777 18.643C9.23661 18.1741 9.5 17.5382 9.5 16.8752H10.75C11.0815 16.8752 11.3995 16.7435 11.6339 16.5091C11.8683 16.2747 12 15.9567 12 15.6252V10.6252C11.9989 9.66762 11.7232 8.73043 11.2056 7.9248C10.688 7.11917 9.95019 6.47888 9.07969 6.07989C9.58231 5.63232 9.92701 5.03444 10.0625 4.3752H13.25C13.4158 4.3752 13.5747 4.30935 13.6919 4.19214C13.8092 4.07493 13.875 3.91596 13.875 3.7502C13.875 3.58444 13.8092 3.42547 13.6919 3.30826C13.5747 3.19105 13.4158 3.1252 13.25 3.1252ZM8.25 16.8752C8.25 17.2067 8.1183 17.5247 7.88388 17.7591C7.64946 17.9935 7.33152 18.1252 7 18.1252C6.66848 18.1252 6.35054 17.9935 6.11612 17.7591C5.8817 17.5247 5.75 17.2067 5.75 16.8752V13.1252C5.75 12.7937 5.8817 12.4757 6.11612 12.2413C6.35054 12.0069 6.66848 11.8752 7 11.8752C7.33152 11.8752 7.64946 12.0069 7.88388 12.2413C8.1183 12.4757 8.25 12.7937 8.25 13.1252V16.8752ZM10.75 10.6252V15.6252H9.5V13.1252C9.5 12.4622 9.23661 11.8263 8.76777 11.3574C8.29893 10.8886 7.66304 10.6252 7 10.6252C6.33696 10.6252 5.70107 10.8886 5.23223 11.3574C4.76339 11.8263 4.5 12.4622 4.5 13.1252V15.6252H3.25V10.6252C3.25 9.63064 3.64509 8.67681 4.34835 7.97355C5.05161 7.27029 6.00544 6.8752 7 6.8752C7.99456 6.8752 8.94839 7.27029 9.65165 7.97355C10.3549 8.67681 10.75 9.63064 10.75 10.6252ZM5.125 3.7502C5.125 3.37936 5.23497 3.01685 5.44099 2.70851C5.64702 2.40017 5.93986 2.15984 6.28247 2.01793C6.62508 1.87601 7.00208 1.83888 7.3658 1.91123C7.72951 1.98358 8.0636 2.16215 8.32583 2.42438C8.58805 2.6866 8.76663 3.02069 8.83897 3.38441C8.91132 3.74812 8.87419 4.12512 8.73227 4.46773C8.59036 4.81035 8.35004 5.10318 8.04169 5.30921C7.73335 5.51524 7.37084 5.6252 7 5.6252C6.50272 5.6252 6.02581 5.42766 5.67417 5.07603C5.32254 4.7244 5.125 4.24748 5.125 3.7502Z" fill="#FFFBFB"/>
</svg>
