<svg width="76" height="75" viewBox="0 0 76 75" fill="none" xmlns="http://www.w3.org/2000/svg">
<path d="M70.8125 56.2501H68.4688V28.9073C68.4688 28.1359 68.2784 27.3764 67.9145 26.6962C67.5507 26.016 67.0245 25.4361 66.3828 25.0079L40.6016 7.81945C39.8316 7.30614 38.9269 7.03223 38.0015 7.03223C37.0761 7.03223 36.1714 7.30614 35.4014 7.81945L9.62012 25.0079C8.97786 25.4357 8.45116 26.0155 8.08677 26.6957C7.72237 27.376 7.53155 28.1356 7.53125 28.9073V56.2501H5.1875C4.5659 56.2501 3.96976 56.497 3.53022 56.9366C3.09068 57.3761 2.84375 57.9723 2.84375 58.5939C2.84375 59.2155 3.09068 59.8116 3.53022 60.2511C3.96976 60.6907 4.5659 60.9376 5.1875 60.9376H70.8125C71.4341 60.9376 72.0302 60.6907 72.4698 60.2511C72.9093 59.8116 73.1562 59.2155 73.1562 58.5939C73.1562 57.9723 72.9093 57.3761 72.4698 56.9366C72.0302 56.497 71.4341 56.2501 70.8125 56.2501ZM40.3438 37.5001H56.75V44.5314H40.3438V37.5001ZM35.6562 44.5314H19.25V37.5001H35.6562V44.5314ZM19.25 49.2189H35.6562V56.2501H19.25V49.2189ZM40.3438 49.2189H56.75V56.2501H40.3438V49.2189Z" fill="#55B76B"/>
</svg>
