<svg width="19" height="16" viewBox="0 0 19 16" fill="none" xmlns="http://www.w3.org/2000/svg">
<path d="M17.8281 3.44219L16.3172 1.93281C16.1999 1.81554 16.0409 1.74965 15.875 1.74965C15.7091 1.74965 15.5501 1.81554 15.4328 1.93281C15.3155 2.05009 15.2497 2.20915 15.2497 2.375C15.2497 2.54085 15.3155 2.69991 15.4328 2.81719L16.9422 4.32812C17.0588 4.44486 17.1245 4.60297 17.125 4.76797V11.125C17.125 11.2908 17.0592 11.4497 16.9419 11.5669C16.8247 11.6842 16.6658 11.75 16.5 11.75C16.3342 11.75 16.1753 11.6842 16.0581 11.5669C15.9408 11.4497 15.875 11.2908 15.875 11.125V8C15.875 7.50272 15.6775 7.02581 15.3258 6.67417C14.9742 6.32254 14.4973 6.125 14 6.125H12.75V2.375C12.75 1.87772 12.5525 1.40081 12.2008 1.04917C11.8492 0.697544 11.3723 0.5 10.875 0.5H4.625C4.12772 0.5 3.65081 0.697544 3.29917 1.04917C2.94754 1.40081 2.75 1.87772 2.75 2.375V14.25H1.5C1.33424 14.25 1.17527 14.3158 1.05806 14.4331C0.940848 14.5503 0.875 14.7092 0.875 14.875C0.875 15.0408 0.940848 15.1997 1.05806 15.3169C1.17527 15.4342 1.33424 15.5 1.5 15.5H14C14.1658 15.5 14.3247 15.4342 14.4419 15.3169C14.5592 15.1997 14.625 15.0408 14.625 14.875C14.625 14.7092 14.5592 14.5503 14.4419 14.4331C14.3247 14.3158 14.1658 14.25 14 14.25H12.75V7.375H14C14.1658 7.375 14.3247 7.44085 14.4419 7.55806C14.5592 7.67527 14.625 7.83424 14.625 8V11.125C14.625 11.6223 14.8225 12.0992 15.1742 12.4508C15.5258 12.8025 16.0027 13 16.5 13C16.9973 13 17.4742 12.8025 17.8258 12.4508C18.1775 12.0992 18.375 11.6223 18.375 11.125V4.76797C18.3759 4.52181 18.3281 4.27791 18.2342 4.05036C18.1404 3.8228 18.0023 3.6161 17.8281 3.44219ZM4 14.25V2.375C4 2.20924 4.06585 2.05027 4.18306 1.93306C4.30027 1.81585 4.45924 1.75 4.625 1.75H10.875C11.0408 1.75 11.1997 1.81585 11.3169 1.93306C11.4342 2.05027 11.5 2.20924 11.5 2.375V14.25H4ZM10.25 6.75C10.25 6.91576 10.1842 7.07473 10.0669 7.19194C9.94973 7.30915 9.79076 7.375 9.625 7.375H5.875C5.70924 7.375 5.55027 7.30915 5.43306 7.19194C5.31585 7.07473 5.25 6.91576 5.25 6.75C5.25 6.58424 5.31585 6.42527 5.43306 6.30806C5.55027 6.19085 5.70924 6.125 5.875 6.125H9.625C9.79076 6.125 9.94973 6.19085 10.0669 6.30806C10.1842 6.42527 10.25 6.58424 10.25 6.75Z" fill="#FFFBFB"/>
</svg>
