<svg width="133" height="132" viewBox="0 0 133 132" fill="none" xmlns="http://www.w3.org/2000/svg">
<g filter="url(#filter0_d_34_521)">
<circle cx="66.5" cy="66" r="55" fill="white"/>
</g>
<g clip-path="url(#clip0_34_521)">
<path d="M30.5 65.5967C30.6984 64.4869 30.7842 63.3403 31.1174 62.2722C31.8229 60.0036 32.6314 57.7644 33.4496 55.5326C34.2826 53.2542 35.1768 51.0004 36.0465 48.7342C36.1273 48.5236 36.218 48.3178 36.3233 48.0654C37.0926 48.3594 37.8202 48.6362 38.6091 48.9376C38.5184 49.2071 38.4498 49.4423 38.3641 49.6701C36.9358 53.4527 35.4536 57.2132 34.0915 61.0179C32.455 65.5893 32.6975 70.1461 34.4884 74.6367C34.5986 74.9135 34.7064 75.1928 34.8387 75.5333C34.0817 75.8493 33.3467 76.158 32.5579 76.4888C31.72 74.5436 31.0782 72.6057 30.7817 70.5625C30.6886 69.928 30.5931 69.2911 30.5 68.6541C30.5 67.635 30.5 66.6158 30.5 65.5967Z" fill="black"/>
<path d="M101.651 94.7845H99.1942V83.5273H101.651V94.7845Z" fill="black"/>
<path d="M101.651 99.787H99.1501C99.1501 99.3435 99.1501 98.9393 99.1501 98.5326C99.1501 98.126 99.1501 97.7585 99.1501 97.2832H101.651V99.7845V99.787Z" fill="black"/>
<path d="M57.8968 81.5404V84.7056C58.9723 85.1442 59.1291 85.3769 59.1291 86.5283C59.1291 89.5392 59.1291 92.5501 59.1291 95.561C59.1291 96.683 58.9552 96.9354 57.8748 97.3469V101.002H55.398V97.3249H42.9037V100.99H40.3926V97.3273C39.2558 97.124 39.0941 96.3351 39.1039 95.3625C39.1358 92.4692 39.1162 89.5735 39.1162 86.6778C39.1162 85.225 39.3489 84.9457 40.8115 84.7081C40.4465 83.8237 40.0839 82.954 39.7262 82.0794C38.734 79.6638 37.6879 77.2678 36.7643 74.8253C34.7897 69.5949 34.9441 64.3619 36.9211 59.1609C39.2705 52.9823 41.6297 46.8062 43.989 40.6301C45.0448 37.8618 47.2252 36.7667 50.0744 37.5188C50.3145 37.5825 50.6869 37.4428 50.8927 37.2713C52.8771 35.6128 55.028 34.236 57.4044 33.2095C62.7696 30.887 68.2965 30.397 73.9753 31.7322C77.9833 32.6754 81.5674 34.4907 84.7008 37.166C85.1295 37.531 85.4823 37.6241 86.0458 37.4526C88.1772 36.7985 90.5144 37.7785 91.389 39.8265C92.56 42.5655 93.5767 45.373 94.6375 48.1585C96.1686 52.1763 97.7439 56.1794 99.182 60.229C101.044 65.4742 100.738 70.6875 98.6332 75.8126C97.423 78.7623 96.1931 81.7021 94.9437 84.7154C95.1372 84.7424 95.2818 84.762 95.4263 84.7816C96.2078 84.8967 96.6341 85.3279 96.6366 86.1339C96.6513 89.3996 96.6464 92.6652 96.639 95.9309C96.639 96.7271 96.1613 97.146 95.3969 97.32V100.985H92.925V97.342H80.4087V100.997H77.9294V97.3273C76.8049 97.124 76.6163 96.3719 76.6261 95.414C76.6555 92.4741 76.6555 89.5319 76.6261 86.5896C76.6163 85.6488 76.8417 84.9408 77.8706 84.7424V81.5478C71.2192 84.1471 64.585 84.1642 57.8944 81.5404H57.8968ZM49.3321 51.5884C52.8183 51.9877 54.1265 53.4625 54.1265 56.8801C54.1265 59.5896 54.1485 62.2992 54.1167 65.0087C54.102 66.3561 54.3421 67.6203 54.9252 68.8379C56.3338 71.7801 57.2672 74.867 57.6225 78.1179C57.669 78.5369 57.8258 78.799 58.2619 78.9827C64.6928 81.7143 71.1114 81.7119 77.535 78.9656C77.9294 78.7966 78.0984 78.5638 78.1425 78.1547C78.4978 74.8572 79.4557 71.7311 80.8839 68.7448C81.4352 67.5933 81.6605 66.3929 81.6483 65.1165C81.6213 62.1522 81.6336 59.1878 81.6434 56.2235C81.6483 54.3126 82.4665 52.8574 84.2182 52.0538C84.8674 51.7574 85.622 51.6961 86.3814 51.5149C86.3153 51.3385 86.2442 51.1253 86.1585 50.9195C85.1834 48.6191 84.1961 46.326 83.2407 44.0207C83.0129 43.4719 82.7507 42.8717 82.7679 42.3034C82.7948 41.294 83.0251 40.2896 83.1868 39.1724C73.5539 30.7082 59.5946 32.4941 52.3944 39.4174C53.1196 40.6644 53.2886 41.98 52.7962 43.347C52.5463 44.0428 52.2401 44.7189 51.9535 45.4C51.0911 47.4407 50.2263 49.479 49.3321 51.5908V51.5884ZM80.4454 84.7375C80.5458 84.7497 80.634 84.7718 80.7198 84.7718C84.4019 84.7718 88.0841 84.7644 91.7662 84.7865C92.1974 84.7865 92.3126 84.5611 92.4399 84.2475C93.7653 81.0431 95.1152 77.8485 96.4161 74.6342C98.1824 70.2686 98.5156 65.7878 96.9109 61.3413C94.4856 54.6237 91.8814 47.9699 89.3433 41.294C88.8435 39.976 87.6382 39.4272 86.4574 39.927C85.3059 40.4121 84.9189 41.5733 85.4799 42.9036C86.8567 46.1619 88.2286 49.4227 89.6226 52.6736C90.1518 53.9059 90.4041 55.1774 90.3992 56.5175C90.387 61.0791 90.3943 65.6432 90.3943 70.2049V70.9766H87.893C87.893 70.685 87.893 70.4352 87.893 70.1828C87.893 65.5746 87.8881 60.964 87.8979 56.3558C87.8979 55.6184 87.7313 54.9667 87.1139 54.5233C86.5284 54.1019 85.867 54.026 85.2079 54.3444C84.4656 54.7046 84.1423 55.3366 84.1423 56.1476C84.1423 59.1805 84.1276 62.2159 84.1472 65.2488C84.1569 66.8045 83.8875 68.2866 83.1917 69.6831C80.8423 74.4113 80.1147 79.4409 80.443 84.7375H80.4454ZM55.3784 84.7742C55.3784 83.8531 55.3686 83.0422 55.3784 82.2313C55.4347 77.9489 54.5822 73.8601 52.7129 70.0015C51.9388 68.4042 51.5909 66.7432 51.6129 64.9695C51.6521 62.0738 51.6301 59.178 51.6203 56.2823C51.6154 54.93 50.7212 54.0603 49.5061 54.195C48.4992 54.3053 47.8769 55.1088 47.8744 56.3362C47.8695 60.9689 47.8744 65.6016 47.8744 70.2343C47.8744 70.4793 47.8744 70.7242 47.8744 70.9594H45.3731C45.3731 70.6508 45.3731 70.396 45.3731 70.1436C45.3731 65.7192 45.3903 61.2947 45.3633 56.8703C45.3535 55.2901 45.6475 53.8079 46.2796 52.3552C47.6687 49.1777 48.9965 45.9733 50.3537 42.7811C50.6869 41.9971 50.6869 41.2426 50.1406 40.5566C49.6408 39.927 48.9622 39.6575 48.1709 39.7727C47.2252 39.9123 46.6936 40.537 46.3653 41.4018C43.9865 47.671 41.593 53.9329 39.2117 60.2021C37.4748 64.7784 37.3547 69.3891 39.1186 73.9679C40.4661 77.4614 41.9678 80.8961 43.374 84.3675C43.5406 84.7742 43.7954 84.7767 44.131 84.7742C47.6736 84.7693 51.2185 84.7718 54.761 84.7718C54.9399 84.7718 55.1187 84.7718 55.3735 84.7718L55.3784 84.7742ZM56.5788 94.7501V87.3319H41.6567V94.7501H56.5788ZM94.1157 87.327H79.196V94.7427H94.1157V87.327Z" fill="black"/>
<path d="M37.7247 44.3105C38.5062 44.607 39.2313 44.8838 40.0471 45.1925C39.807 45.8344 39.5792 46.4444 39.3244 47.123C38.5429 46.8266 37.8006 46.5424 36.9897 46.2361C37.2396 45.582 37.4723 44.9696 37.7247 44.3105Z" fill="black"/>
<path d="M56.5788 94.7502H41.6567V87.332H56.5788V94.7502Z" fill="#55B76B"/>
<path d="M94.1157 87.3271V94.7429H79.196V87.3271H94.1157Z" fill="#55B76B"/>
<path d="M67.613 67.4299V70.9014C66.8291 70.97 66.0598 71.0361 65.1607 71.1145C65.1313 70.2791 65.0162 69.4756 65.097 68.6941C65.2195 67.5157 64.9353 66.8591 63.7079 66.3397C61.1674 65.2618 60.0307 62.9908 59.5603 60.3964C58.5559 54.8499 61.2826 50.3666 65.7266 47.8261C69.6586 45.5796 73.8504 45.6114 78.096 46.829C79.0735 47.1083 79.4214 47.9266 78.8799 48.7718C77.7579 50.5234 77.5252 52.4637 77.4296 54.4726C77.3341 56.479 77.3169 58.5173 76.9225 60.4723C76.0185 64.9678 72.7553 67.6553 68.0417 67.4275C67.929 67.4226 67.8139 67.4275 67.613 67.4275V67.4299ZM76.016 48.8183C75.3227 48.7228 74.7323 48.6101 74.137 48.5611C70.8762 48.2891 67.8825 48.9531 65.3273 51.1187C62.2037 53.767 61.0964 57.4369 62.3507 61.1558C62.8358 62.5964 63.6663 63.7698 65.2611 64.3235C65.6997 60.3866 66.638 56.6432 68.25 53.0198C69.0192 53.3604 69.7468 53.6813 70.5137 54.0218C69.0217 57.5349 68.0638 61.1044 67.7404 64.8747C69.1711 65.0046 70.4965 64.8674 71.719 64.1349C73.6397 62.9859 74.4285 61.1436 74.6711 59.0538C74.8499 57.5202 74.8573 55.9621 74.894 54.4138C74.9406 52.525 75.3007 50.7023 76.0112 48.8183H76.016Z" fill="#55B76B"/>
<path d="M77.1797 38.1342C76.8172 38.8789 76.4766 39.582 76.0895 40.3758C71.5328 38.2713 66.8511 37.9308 62.0273 39.413C61.8068 38.7491 61.6084 38.1635 61.4173 37.5756C61.3683 37.4261 61.3438 37.2693 61.2948 37.0464C66.7458 35.3511 72.0056 35.7308 77.1822 38.1317L77.1797 38.1342Z" fill="black"/>
<path d="M57.3211 41.7229C56.8434 41.0223 56.4024 40.3755 55.9125 39.6553C56.7944 39.1408 57.6396 38.6459 58.5657 38.1045C58.9503 38.8933 59.3006 39.6087 59.6632 40.351C58.8817 40.8091 58.132 41.2477 57.3211 41.7229Z" fill="black"/>
</g>
<defs>
<filter id="filter0_d_34_521" x="0.5" y="0" width="132" height="132" filterUnits="userSpaceOnUse" color-interpolation-filters="sRGB">
<feFlood flood-opacity="0" result="BackgroundImageFix"/>
<feColorMatrix in="SourceAlpha" type="matrix" values="0 0 0 0 0 0 0 0 0 0 0 0 0 0 0 0 0 0 127 0" result="hardAlpha"/>
<feMorphology radius="1" operator="dilate" in="SourceAlpha" result="effect1_dropShadow_34_521"/>
<feOffset/>
<feGaussianBlur stdDeviation="5"/>
<feComposite in2="hardAlpha" operator="out"/>
<feColorMatrix type="matrix" values="0 0 0 0 0.545098 0 0 0 0 0.823529 0 0 0 0 0.627451 0 0 0 0.4 0"/>
<feBlend mode="normal" in2="BackgroundImageFix" result="effect1_dropShadow_34_521"/>
<feBlend mode="normal" in="SourceGraphic" in2="effect1_dropShadow_34_521" result="shape"/>
</filter>
<clipPath id="clip0_34_521">
<rect width="71.1514" height="70" fill="white" transform="translate(30.5 31)"/>
</clipPath>
</defs>
</svg>
