<svg width="390" height="400" viewBox="0 0 390 400" fill="none" xmlns="http://www.w3.org/2000/svg">
<path d="M437.104 151.003C403.828 288.52 231.602 364.853 52.4263 321.497C-126.749 278.141 -245.025 131.514 -211.749 -6.00307C-178.473 -143.52 -6.24733 -219.853 172.928 -176.497C352.104 -133.141 470.379 13.4858 437.104 151.003Z" fill="#B8EFC5"/>
<path d="M395.947 133.42C367.484 251.049 220.167 316.342 66.9049 279.256C-86.357 242.17 -187.526 116.75 -159.063 -0.878287C-130.6 -118.507 16.7171 -183.8 169.979 -146.714C323.241 -109.628 424.41 15.792 395.947 133.42Z" fill="#8CDB9E"/>
<ellipse cx="151.229" cy="48.0644" rx="263.445" ry="202.194" transform="rotate(13.6027 151.229 48.0644)" fill="#55B76B" fill-opacity="0.69"/>
</svg>
