<svg width="133" height="132" viewBox="0 0 133 132" fill="none" xmlns="http://www.w3.org/2000/svg">
<g filter="url(#filter0_d_34_537)">
<circle cx="66.5" cy="66" r="55" fill="white"/>
</g>
<g clip-path="url(#clip0_34_537)">
<path d="M67.5454 31C68.2199 31.0848 68.8962 31.1601 69.567 31.2581C78.0245 32.5016 84.3285 36.9272 88.5601 44.2901C90.4554 47.5891 91.4276 51.2027 91.6386 55.0216C91.9777 61.1994 90.3028 66.7649 86.6647 71.7501C86.2766 72.2833 85.8584 72.8014 85.4062 73.28C85.0671 73.6398 85.0727 73.9149 85.3176 74.3369C88.7259 80.2039 92.1134 86.0821 95.5085 91.9566C95.7779 92.4219 96.0172 92.8515 95.6667 93.4073C95.1392 94.2494 94.6663 94.4567 93.7299 94.0893C91.5689 93.2415 89.4173 92.3767 87.2601 91.5195C86.6911 91.2934 86.1202 91.0692 85.4457 90.8035C85.3176 91.625 85.1857 92.3974 85.0765 93.1718C84.7826 95.2235 84.4981 97.2752 84.2079 99.327C84.1721 99.5757 84.1382 99.8262 84.0685 100.066C83.7934 101.021 82.6574 101.3 81.9659 100.572C81.7662 100.361 81.6192 100.096 81.4704 99.8413C78.0697 93.9706 74.669 88.0999 71.2852 82.2179C71.0384 81.7883 70.8236 81.6112 70.2886 81.7092C67.4606 82.2179 64.6232 82.1972 61.7953 81.6998C61.3073 81.6131 61.1189 81.7865 60.9003 82.1651C57.5147 88.0453 54.114 93.916 50.7189 99.7904C50.3459 100.435 49.9823 101.122 49.0855 100.985C48.1246 100.838 48.0587 100.043 47.9513 99.2761C47.5575 96.482 47.143 93.6918 46.7266 90.8186C46.4403 90.9222 46.1916 91.0051 45.9485 91.1012C43.5181 92.0696 41.0896 93.0418 38.6572 94.0083C38.4462 94.0912 38.2296 94.1684 38.0091 94.2155C37.0294 94.4265 36.2796 93.6447 36.5584 92.6857C36.6451 92.3842 36.8071 92.0997 36.9654 91.8266C40.2982 86.0482 43.6255 80.266 46.9885 74.5046C47.3276 73.9224 47.2504 73.589 46.8397 73.1029C42.0165 67.4093 39.944 60.8038 40.92 53.4334C42.188 43.8398 47.4727 37.0817 56.2279 33.0555C58.7638 31.8893 61.4806 31.2732 64.2822 31.1055C64.4593 31.0942 64.6345 31.0358 64.8097 31C65.7216 31 66.6335 31 67.5454 31ZM89.1423 56.4271C89.0952 43.7644 78.9194 33.5529 66.2171 33.5284C53.528 33.5039 43.2524 43.8963 43.2732 56.5779C43.2939 69.3932 53.4452 79.4728 66.2115 79.5124C78.8082 79.552 89.1912 69.0371 89.1441 56.4271H89.1423ZM91.552 90.3871C91.584 90.3476 91.6179 90.308 91.6499 90.2684C88.8257 85.385 86.0015 80.5015 83.2244 75.6972C81.6607 76.7466 80.2269 77.845 78.6669 78.7192C77.0919 79.601 75.3925 80.2585 73.7006 81.0366C76.4965 85.9106 79.3245 90.8355 82.1505 95.7605C82.6178 93.5109 82.9494 91.3292 83.2753 89.1474C83.4618 87.9002 84.1778 87.4801 85.3591 87.9454C87.0528 88.6105 88.7428 89.2831 90.4347 89.9519C90.8059 90.0989 91.1789 90.2421 91.5501 90.3871H91.552ZM49.1702 75.701C46.3894 80.511 43.5633 85.3963 40.6487 90.4324C41.0368 90.2986 41.2497 90.2364 41.4551 90.1554C43.3372 89.4112 45.2137 88.6576 47.0978 87.919C48.1566 87.5045 48.9102 87.9228 49.0892 89.0306C49.3285 90.5134 49.5433 91.9999 49.7713 93.4826C49.8862 94.2268 50.0068 94.9692 50.1236 95.7134C50.1726 95.7152 50.2215 95.7171 50.2705 95.719C53.0909 90.8016 55.9095 85.8843 58.6903 81.0347C56.9759 80.2472 55.2953 79.5972 53.7391 78.7249C52.1791 77.8507 50.7434 76.7542 49.1702 75.701Z" fill="black"/>
<path d="M89.1423 56.4271C89.1894 69.0371 78.8064 79.5519 66.2096 79.5124C53.4433 79.4728 43.292 69.3931 43.2713 56.5778C43.2506 43.8963 53.5262 33.5039 66.2152 33.5284C78.9175 33.5529 89.0933 43.7644 89.1404 56.4271H89.1423ZM66.2171 76.4018C77.2124 76.3792 86.0298 67.56 86.0826 56.5345C86.1334 45.5844 77.1484 36.5956 66.1794 36.6276C55.1822 36.6597 46.3442 45.5072 46.3272 56.5044C46.3084 67.511 55.2199 76.4244 66.219 76.4018H66.2171Z" fill="#55B76B"/>
<path d="M66.2171 76.4022C55.218 76.4248 46.3065 67.5095 46.3253 56.5047C46.3442 45.5075 55.1804 36.66 66.1776 36.628C77.1446 36.596 86.1315 45.5848 86.0807 56.5349C86.0298 67.5603 77.2106 76.3815 66.2152 76.4022H66.2171ZM48.8198 56.5368C48.8349 66.0719 56.6348 73.87 66.1908 73.9002C75.8182 73.9303 83.5711 66.1398 83.5579 56.4426C83.5466 46.8867 75.7523 39.0924 66.2002 39.0829C56.7083 39.0754 48.8047 47.011 48.8179 56.5368H48.8198Z" fill="black"/>
<path d="M66.3754 64.0159C64.9812 65.0277 63.6134 66.0451 62.2211 67.0285C60.7082 68.0968 58.9296 67.6992 58.0102 66.111C57.6259 65.4459 57.5637 64.7356 57.7992 64.0046C58.2683 62.5558 58.7243 61.1013 59.2292 59.6638C59.3931 59.2003 59.346 58.9441 58.9183 58.6539C57.656 57.7986 56.4106 56.9149 55.1954 55.9936C54.2383 55.2683 53.8823 54.2547 54.1422 53.0847C54.3796 52.0202 55.0711 51.3325 56.1299 51.0499C56.388 50.9802 56.6688 50.967 56.9382 50.9651C58.419 50.9557 59.8999 50.9387 61.3808 50.9708C61.8499 50.9802 62.0609 50.8427 62.1947 50.3905C62.6355 48.9077 63.0877 47.4288 63.5983 45.9705C64.1541 44.3822 65.7329 43.6814 67.308 44.2767C68.2349 44.6272 68.7342 45.3751 69.0262 46.2757C69.469 47.6379 69.9061 49.0038 70.3112 50.3754C70.4412 50.8125 70.6296 50.9858 71.1157 50.9745C72.6417 50.9387 74.1678 50.9538 75.6939 50.9708C77.0071 50.9858 78.0037 51.7602 78.4201 53.0545C78.8403 54.3583 78.5369 55.289 77.3745 56.1406C76.18 57.0148 74.9798 57.8815 73.7609 58.718C73.4123 58.9573 73.352 59.1702 73.4877 59.5602C73.9738 60.9562 74.4127 62.3674 74.8875 63.7672C75.3077 65.0069 74.978 66.2184 73.9813 67.0191C73.0299 67.7821 71.7657 67.8537 70.6748 67.1171C69.4502 66.2881 68.2726 65.3894 67.0725 64.5209C66.8521 64.3607 66.6316 64.2043 66.3735 64.0216L66.3754 64.0159ZM59.9225 53.4144C59.0332 53.4144 58.1459 53.3937 57.2585 53.4276C56.9966 53.437 56.7422 53.5952 56.4822 53.6857C56.633 53.8929 56.7441 54.1492 56.9382 54.2999C58.2646 55.3399 59.606 56.3573 60.9437 57.3841C61.8405 58.0718 61.914 58.3016 61.5729 59.3586C61.0435 61.0033 60.499 62.6443 59.9866 64.2929C59.915 64.5227 59.9866 64.7959 59.9922 65.0484C60.2372 64.9787 60.5216 64.9674 60.7176 64.828C62.1457 63.8106 63.5531 62.7649 64.9699 61.7325C65.8592 61.0862 66.3 61.0862 67.1836 61.7306C68.527 62.7084 69.859 63.7032 71.2155 64.664C71.4887 64.8581 71.8429 64.9353 72.1594 65.0672C72.1425 64.7338 72.1933 64.3796 72.0972 64.0706C71.6149 62.5068 71.0931 60.9543 70.5862 59.3981C70.2528 58.3675 70.3677 58.0133 71.2588 57.3615C72.6926 56.312 74.132 55.2739 75.5601 54.217C75.7448 54.0794 75.8691 53.859 76.0198 53.6781C75.7843 53.5896 75.5488 53.4276 75.3133 53.4257C73.6045 53.4031 71.8957 53.4144 70.1887 53.4144C68.9754 53.4144 68.6231 53.16 68.2519 52.0145C67.747 50.4564 67.2552 48.8964 66.7334 47.344C66.6392 47.0651 66.43 46.8259 66.2718 46.5677C66.1022 46.8334 65.8723 47.0783 65.7744 47.3685C65.2431 48.9416 64.7476 50.5261 64.2351 52.1031C63.8922 53.1563 63.5437 53.4106 62.4509 53.4125C61.6087 53.4144 60.7647 53.4125 59.9225 53.4125V53.4144Z" fill="black"/>
<path d="M59.9206 53.4141C60.7628 53.4141 61.6069 53.416 62.449 53.4141C63.5418 53.4103 63.8903 53.1579 64.2332 52.1047C64.7457 50.5258 65.2412 48.9414 65.7725 47.3701C65.8705 47.0799 66.1003 46.835 66.2699 46.5693C66.4263 46.8275 66.6373 47.0667 66.7315 47.3456C67.2534 48.898 67.7451 50.458 68.25 52.0161C68.6212 53.1616 68.9716 53.416 70.1868 53.416C71.8957 53.416 73.6045 53.4066 75.3114 53.4273C75.5488 53.431 75.7824 53.5912 76.018 53.6797C75.8653 53.8606 75.7429 54.081 75.5582 54.2186C74.1301 55.2755 72.6907 56.3136 71.257 57.3631C70.3658 58.0149 70.2509 58.3691 70.5844 59.3997C71.0893 60.9559 71.6112 62.5084 72.0954 64.0722C72.1914 64.3811 72.1406 64.7353 72.1575 65.0688C71.841 64.9369 71.4868 64.8597 71.2136 64.6656C69.8571 63.7048 68.5251 62.71 67.1818 61.7322C66.2981 61.0878 65.8573 61.0878 64.968 61.7341C63.5493 62.7646 62.1419 63.8103 60.7157 64.8295C60.5216 64.969 60.2353 64.9784 59.9903 65.05C59.9847 64.7975 59.9131 64.5243 59.9847 64.2945C60.4971 62.6441 61.0416 61.0049 61.5711 59.3602C61.9121 58.3032 61.8367 58.0752 60.9418 57.3857C59.606 56.3589 58.2627 55.3415 56.9363 54.3015C56.7422 54.1489 56.6311 53.8945 56.4804 53.6873C56.7385 53.5968 56.9947 53.4386 57.2566 53.4292C58.144 53.3971 59.0332 53.416 59.9206 53.416V53.4141Z" fill="#55B76B"/>
</g>
<defs>
<filter id="filter0_d_34_537" x="0.5" y="0" width="132" height="132" filterUnits="userSpaceOnUse" color-interpolation-filters="sRGB">
<feFlood flood-opacity="0" result="BackgroundImageFix"/>
<feColorMatrix in="SourceAlpha" type="matrix" values="0 0 0 0 0 0 0 0 0 0 0 0 0 0 0 0 0 0 127 0" result="hardAlpha"/>
<feMorphology radius="1" operator="dilate" in="SourceAlpha" result="effect1_dropShadow_34_537"/>
<feOffset/>
<feGaussianBlur stdDeviation="5"/>
<feComposite in2="hardAlpha" operator="out"/>
<feColorMatrix type="matrix" values="0 0 0 0 0.545098 0 0 0 0 0.823529 0 0 0 0 0.627451 0 0 0 0.4 0"/>
<feBlend mode="normal" in2="BackgroundImageFix" result="effect1_dropShadow_34_537"/>
<feBlend mode="normal" in="SourceGraphic" in2="effect1_dropShadow_34_537" result="shape"/>
</filter>
<clipPath id="clip0_34_537">
<rect width="59.34" height="70" fill="white" transform="translate(36.5 31)"/>
</clipPath>
</defs>
</svg>
