<svg width="172" height="149" viewBox="0 0 172 149" fill="none" xmlns="http://www.w3.org/2000/svg">
<circle cx="86.0909" cy="74.0909" r="74.0909" fill="white"/>
<path fill-rule="evenodd" clip-rule="evenodd" d="M85 134C121.451 134 151 104.451 151 68C151 31.5492 121.451 2 85 2C48.5492 2 19 31.5492 19 68C19 104.451 48.5492 134 85 134ZM85 128.777C118.566 128.777 145.777 101.566 145.777 68C145.777 34.4338 118.566 7.22305 85 7.22305C51.4338 7.22305 24.223 34.4338 24.223 68C24.223 101.566 51.4338 128.777 85 128.777Z" fill="#F8F4ED"/>
<path d="M97.3673 67.7791C97.3237 67.8193 97.2267 67.864 97.0812 67.9131C96.6885 68.0472 95.9369 68.2215 94.909 68.4182C90.8119 69.2093 82.3315 70.3802 74.5251 71.14C73.2547 71.2651 72.0086 71.3769 70.7964 71.4751C69.6133 71.5735 68.4642 71.6539 67.3781 71.7209C67.7369 70.9746 68.0714 70.2908 68.3672 69.6964C66.5247 70.1656 64.4397 70.6393 62.7961 70.845C61.2251 71.0416 59.848 71.207 58.7765 71.6181C58.4759 71.5466 58.248 71.4572 58.1025 71.3499C55.2466 69.2226 55.5229 65.8259 55.5229 65.8259C55.5229 65.8259 54.946 65.7767 54.369 65.4594C53.8598 65.1868 53.3459 64.7086 53.2198 63.8728C52.9435 62.0895 55.2175 55.2516 62.4324 55.6314C63.5379 55.6896 65.0458 55.7342 66.8156 55.7655C68.0181 55.7878 69.3467 55.8057 70.7479 55.8191C77.7688 55.8862 86.7244 55.837 92.1064 55.7833C93.1828 55.7744 94.1138 55.761 94.8556 55.7521C95.7139 55.7386 96.3297 55.7253 96.6254 55.7164C99.1177 55.6314 98.5649 66.7599 97.3673 67.7789V67.7791Z" fill="#D86545"/>
<path d="M74.5251 71.1399C73.2547 71.265 72.0086 71.3768 70.7964 71.4751C73.0995 62.8449 69.0994 57.8214 66.8157 55.7656C68.0182 55.788 69.3467 55.8058 70.7479 55.8193C74.5638 59.5824 74.7481 67.0684 74.5251 71.1399Z" fill="#FFC648"/>
<path d="M97.0817 67.9128C96.6889 68.0469 95.9374 68.2212 94.9095 68.4179C95.6222 61.7498 93.5906 57.7498 92.1069 55.7832C93.1834 55.7743 94.1143 55.7609 94.8562 55.752C97.2562 59.8726 97.3144 64.9542 97.0817 67.9128Z" fill="#FFC648"/>
<path d="M60.4448 49.8571C60.3138 49.8214 60.2654 49.7544 60.2896 49.6605C60.5369 48.5521 70.2488 43.6314 70.5446 40.9767C70.8646 38.094 73.832 23.9756 87.229 26.2638C94.5893 27.4035 95.4087 27.6717 95.4087 27.6717C95.4087 27.6717 102.939 23.3543 106.73 24.0828C107.264 24.1812 107.724 24.3867 108.078 24.713C110.958 27.3722 76.5182 53.589 60.4447 49.8571H60.4448Z" fill="#FFF0D2"/>
<path d="M100.267 33.4864C92.5238 39.511 80.5088 46.7825 70.4574 49.3032C66.7482 50.2373 63.3056 50.5233 60.4449 49.8574C60.3139 49.8217 60.2655 49.7546 60.2897 49.6607C62.5055 48.6864 66.8015 46.7691 71.6599 44.4272C79.8881 40.463 89.7261 35.292 93.8378 31.4484C94.5069 30.8272 95.1712 30.2506 95.8258 29.7232C100.257 26.1612 104.364 24.6819 106.73 24.083C107.264 24.1813 107.724 24.3869 108.078 24.7132C109.058 25.616 105.727 29.2405 100.267 33.4863V33.4864Z" fill="#E0D0B3"/>
<path d="M70.4452 39.236C70.4452 39.236 87.6777 32.2945 92.5046 26.6226C92.9533 26.0022 95.4085 27.6717 95.4085 27.6717C95.4085 27.6717 84.9485 34.7591 81.1349 36.689C77.3212 38.619 72.6626 40.6496 70.5444 40.9767C69.8941 41.0602 69.7722 39.3739 70.4452 39.236Z" fill="#FF9C4A"/>
<path d="M82.8554 59.0062C82.8117 59.1492 82.7487 59.2788 82.6663 59.395V59.3995C82.3608 59.8464 81.7984 60.119 81.0905 60.271C80.8432 60.3246 80.5862 60.3648 80.3098 60.3916C79.8492 60.4408 79.3547 60.4587 78.8407 60.4453C78.7291 60.4498 78.6176 60.4453 78.5061 60.4408C78.0794 60.4274 77.6527 60.4006 77.2309 60.3738C75.8635 60.271 74.5931 60.1056 73.8804 60.1145C73.2258 60.1145 72.6682 60.0609 72.1979 59.967C68.8232 59.3146 69.7736 56.6017 69.6524 56.0118C66.8692 55.8061 66.8013 52.8431 69.3178 50.6754C69.7833 50.2732 70.1566 49.8039 70.4572 49.3033C71.6161 47.3637 71.6646 44.9681 71.6597 44.4274C74.0453 43.2788 76.5666 42.0274 79.0395 40.7402C78.7825 41.7369 77.4927 46.9704 78.22 47.9805C79.0298 49.0978 80.5959 50.0364 78.7292 51.9403C78.7292 51.9403 77.4152 52.7314 79.1801 53.6654C80.6541 54.4386 79.151 54.7291 78.8988 55.5023C78.8455 55.6587 78.8455 55.8374 78.9279 56.0386C78.991 56.1951 79.1315 56.3828 79.3351 56.5972C79.9703 57.2721 81.2504 58.1928 82.8553 59.0062H82.8554Z" fill="#21935F"/>
<path d="M100.034 60.6287C99.5881 62.7829 94.1333 62.3717 94.1333 62.3717C94.1333 62.3717 94.7539 61.2052 96.4704 60.6287C96.6838 60.5571 96.8292 60.4946 96.9213 60.441C97.542 60.0745 95.4182 60.0477 93.5757 58.9482C96.0292 57.3885 98.5844 55.1002 98.5844 53.0578C98.5844 52.8298 98.5893 52.5885 98.6039 52.3382C98.7639 48.66 99.9906 42.8276 98.8366 41.6477C97.6584 40.4455 86.0991 40.222 83.2141 38.4968C87.6653 36.0254 91.5975 33.5404 93.8376 31.4488C94.5067 30.8276 95.171 30.251 95.8256 29.7236C97.0863 30.4969 99.2003 31.9359 100.267 33.4867C100.655 34.0499 100.907 34.6264 100.926 35.1895C101.038 38.0588 101.906 38.3225 103.593 39.8018C105.285 41.2856 102.817 43.7035 102.594 44.8297C103.375 46.4699 103.574 47.8598 102.037 49.2408C100.505 50.6218 104.485 50.5727 105.489 54.9839C106.488 59.3951 100.48 58.4744 100.034 60.6286L100.034 60.6287Z" fill="#21935F"/>
<path d="M82.8552 59.0049C82.8116 59.1479 82.7485 59.2775 82.6661 59.3937V59.3982C82.3606 59.8451 81.7982 60.1177 81.0903 60.2697C76.7362 58.4686 77.7448 56.6138 78.8987 55.501C78.8454 55.6574 78.8454 55.8361 78.9278 56.0373C78.9909 56.1938 79.1314 56.3815 79.3351 56.5959C79.9702 57.2708 81.2503 58.1915 82.8552 59.0049Z" fill="#127043"/>
<path d="M72.0913 100.718L71.9506 107.283C71.8731 107.31 71.7906 107.341 71.7131 107.372C71.6985 107.802 71.6743 108.231 71.6403 108.655C71.5239 110.121 71.2864 110.706 71.0973 111.167C70.8548 111.752 70.6851 112.128 70.9325 113.866C70.9421 113.92 70.947 113.974 70.9518 114.036C71.17 116.369 69.7833 123.533 68.896 127.784C67.2814 128.213 65.2304 128.566 63.6594 128.204C62.6606 127.976 61.0944 127.645 59.3587 127.122C55.7706 126.041 51.4601 124.137 49.9183 120.584C47.6297 115.305 47.46 116.668 49.031 111.909C50.5971 107.144 52.0808 103.346 52.3378 93.6159C52.5802 84.1857 54.6215 82.3354 54.7476 82.2282C54.636 82.2505 53.0554 82.608 53.2202 81.6516C53.3948 80.6594 56.4495 79.5645 56.3961 75.5958C56.3379 71.627 58.9998 71.3142 62.7964 70.8449C64.4402 70.6393 66.5251 70.1656 68.3675 69.6963C67.6451 71.1443 66.7093 73.1153 65.7153 75.2382C62.8934 81.2717 59.6254 88.5387 59.6254 88.5387C59.6254 88.5387 59.5623 88.5208 59.4605 88.503C59.0678 88.4404 58.0787 88.4091 57.9477 89.5979C57.778 91.0906 57.4144 92.5297 56.3574 93.9956C55.2955 95.4616 58.389 95.542 58.389 95.542C58.389 95.542 63.7662 96.9052 67.7372 98.7152C68.0815 98.8717 68.4112 99.0325 68.7264 99.1934C69.6525 99.6716 70.4574 100.168 71.0198 100.673C71.0587 100.74 71.0925 100.82 71.1265 100.914C71.1993 100.901 71.2671 100.887 71.3399 100.869C71.5823 100.82 71.8345 100.767 72.0915 100.718L72.0913 100.718Z" fill="#127043"/>
<path d="M71.3399 100.87C71.2673 100.888 71.1993 100.901 71.1266 100.915C71.0926 100.821 71.0587 100.74 71.0199 100.673C70.4574 100.168 69.6525 99.6722 68.7265 99.194C68.4113 99.0331 68.0816 98.8722 67.7373 98.7158C67.1797 101.107 66.1566 105.666 66.0839 107.006C65.9821 108.852 62.5977 112.866 62.5977 112.866C64.5614 112.481 65.919 112.602 66.8354 113.035C66.8631 112.947 66.8852 112.881 66.9004 112.836C68.6757 114.165 70.009 114.312 70.9519 114.037C70.9471 113.974 70.9423 113.92 70.9326 113.867C70.8557 113.326 70.8192 112.918 70.8126 112.593C70.8126 112.59 70.8124 112.587 70.8124 112.585C70.8091 112.408 70.8151 112.258 70.828 112.125C70.8301 112.103 70.8321 112.081 70.8346 112.06C70.8387 112.026 70.8431 111.992 70.8481 111.96C70.8533 111.927 70.8592 111.895 70.8653 111.864C70.8724 111.828 70.88 111.793 70.8882 111.76C70.8955 111.73 70.903 111.7 70.9111 111.672C70.9168 111.651 70.9227 111.631 70.9288 111.611C70.9416 111.571 70.9548 111.53 70.969 111.491C70.9736 111.478 70.9785 111.465 70.9832 111.453C70.9969 111.416 71.0111 111.379 71.0259 111.342C71.0322 111.327 71.0385 111.311 71.045 111.295C71.0621 111.253 71.0794 111.211 71.0975 111.167C71.2866 110.707 71.5242 110.121 71.6406 108.656C71.6745 108.231 71.6987 107.802 71.7133 107.373C71.7909 107.342 71.8733 107.31 71.9509 107.284L72.0915 100.718C71.8345 100.767 71.5824 100.821 71.3399 100.87V100.87Z" fill="#0B5631"/>
<path d="M100.849 56.5122C98.4539 56.5703 98.0661 58.5412 97.7412 59.7345C97.6054 60.2305 97.2709 60.4049 96.9218 60.4407C97.5424 60.0741 95.4186 60.0474 93.5762 58.9479C96.0296 57.3881 98.5849 55.0999 98.5849 53.0574C98.5849 52.8295 98.5897 52.5881 98.6043 52.3379C100.059 53.9468 101.824 56.6239 100.849 56.5122H100.849Z" fill="#127043"/>
<path d="M78.8407 60.4451C78.7291 60.4496 78.6176 60.4451 78.5061 60.4407C78.0794 60.4273 77.6527 60.4005 77.2309 60.3736C70.3263 56.9636 74.0938 51.6943 74.0938 51.6943C74.0938 51.6943 76.4066 53.9155 76.9012 54.4161C75.3254 55.2787 75.7423 56.7624 76.0623 58.2284C76.2369 59.0374 77.6285 59.8687 78.8407 60.4451Z" fill="#127043"/>
<path d="M77.2454 50.2806C77.2454 50.2806 76.2329 47.3674 74.76 48.6402C73.2871 49.9129 73.6349 54.1599 76.3863 54.6079C77.0546 54.6178 77.6136 54.1554 76.8158 53.0806C76.018 52.0059 77.2454 50.2806 77.2454 50.2806Z" fill="#FFE1CC"/>
<path d="M101.368 90.7462C101.319 90.764 101.271 90.773 101.222 90.7775C101.368 90.4065 101.494 89.9507 101.571 89.383C101.591 89.2266 101.615 89.0657 101.644 88.9048C101.697 88.5741 101.755 88.23 101.809 87.8724C101.833 87.6892 101.862 87.506 101.891 87.3182C101.949 86.9429 101.993 86.5451 102.027 86.1294C102.071 85.5842 102.095 85.0076 102.075 84.3954C102.071 84.1048 102.051 83.8054 102.022 83.5015C102.017 83.497 102.017 83.4926 102.022 83.4836C102.008 83.3362 101.993 83.1886 101.969 83.0367C101.92 82.6121 101.843 82.1696 101.741 81.7138C101.717 81.611 101.693 81.5082 101.668 81.4009C101.6 81.1149 101.518 80.8199 101.426 80.516C101.373 80.3372 101.314 80.154 101.246 79.9707C101.188 79.7875 101.12 79.6042 101.048 79.4165C101.048 79.4165 101.048 79.412 101.043 79.4076C100.985 79.2512 100.922 79.0948 100.854 78.9339C100.825 78.8579 100.795 78.7864 100.762 78.7104C100.616 78.3618 100.446 77.9998 100.267 77.6333C100.165 77.4277 100.058 77.2222 99.9469 77.0121C99.8499 76.8288 99.7481 76.6456 99.6414 76.4579C99.6268 76.4311 99.6075 76.3997 99.5929 76.373C99.1565 75.6132 98.6474 74.8176 98.0607 73.9864C95.68 70.2054 94.4872 68.6099 93.8908 67.9529C93.692 67.6132 93.4545 67.2691 93.1781 66.9339L91.1465 64.4579C91.127 64.4579 90.875 64.449 90.6228 64.1004C90.8216 63.7607 91.2483 63.4345 92.1065 64.0512C93.4932 65.0434 94.6763 66.9428 97.92 66.9428C98.9722 66.9428 99.7674 68.2076 100.373 70.0132C101.634 73.7584 102.095 79.8322 102.444 81.7852C102.958 84.6768 103.937 89.8925 101.367 90.7461L101.368 90.7462Z" fill="#21935F"/>
<path d="M91.1177 72.2841C88.4412 72.3288 86.0653 69.6293 84.218 67.2695C83.1755 65.9422 82.3076 64.722 81.6433 64.1589C82.4724 63.8505 82.1816 60.284 81.9876 58.541C82.1669 58.6438 82.3561 58.7466 82.55 58.8449C82.6518 58.903 82.7537 58.9522 82.8555 59.0058C84.7271 59.9488 87.0593 60.7488 89.3382 60.8337C89.503 60.8516 89.7648 60.8024 90.0994 60.6997C90.0897 60.9321 90.08 61.1511 90.08 61.3522C90.0752 62.979 90.3564 63.7522 90.6231 64.1008C90.8752 64.4494 91.1273 64.4583 91.1468 64.4583L93.1784 66.9343C93.4547 67.2695 93.6923 67.6136 93.8911 67.9533L93.896 67.9577C94.0172 68.1723 94.1239 68.3868 94.216 68.5968C95.0403 70.5231 94.376 72.2303 91.1177 72.2839V72.2841Z" fill="#FFE1CC"/>
<path d="M87.927 97.5983C87.927 97.5983 88.31 98.2374 88.0822 99.3323C87.8494 100.432 84.7366 100.785 84.2759 101.138C83.2771 104.258 80.0721 104.007 80.0721 104.007C80.0721 104.007 75.941 105.759 71.7129 107.373C71.805 104.66 71.5335 101.987 71.1262 100.914C74.3312 100.266 78.7435 99.2251 78.7435 99.2251C78.7435 99.2251 81.1242 92.8877 81.8952 92.1815C82.6613 91.4709 84.6589 90.6575 85.8905 90.5145C87.122 90.3714 88.2712 92.9592 88.2324 93.7726C88.6542 94.7648 88.1936 95.5782 87.9269 96.1101C88.6542 96.6419 87.9269 97.5983 87.9269 97.5983L87.927 97.5983Z" fill="#FF9C4A"/>
<path d="M100.762 78.7099C100.612 78.3613 100.447 77.9993 100.267 77.6328C100.447 77.9993 100.616 78.3613 100.762 78.7099Z" fill="#21935F"/>
<path d="M101.188 122.591C101.479 125.375 101.765 127.842 102.027 129.643C96.6257 133.791 88.9162 134.381 82.2202 133.822C74.5399 133.187 68.1929 131.047 68.1929 131.047C68.1929 131.047 68.4936 129.715 68.896 127.784C69.8075 123.427 71.2379 116.008 70.9325 113.867C70.4912 110.77 71.3737 111.994 71.6403 108.656C71.6743 108.231 71.6985 107.802 71.7131 107.373C71.7906 107.342 71.8731 107.31 71.9506 107.284C76.0963 105.693 80.0722 104.008 80.0722 104.008C80.0722 104.008 83.2771 104.258 84.276 101.138C84.7366 100.785 87.8495 100.432 88.0823 99.3327C88.3102 98.2378 87.9271 97.5987 87.9271 97.5987C87.9271 97.5987 88.6544 96.6422 87.9271 96.1104C88.1938 95.5786 88.6544 94.7651 88.2326 93.7729C88.2714 92.9595 87.1222 90.3718 85.8907 90.5148C84.6591 90.6579 82.6615 91.4712 81.8953 92.1818C81.1244 92.888 78.7437 99.2254 78.7437 99.2254C78.7437 99.2254 75.146 100.075 72.0913 100.718C71.8343 100.767 71.5821 100.821 71.3397 100.87C71.267 100.888 71.1991 100.901 71.1263 100.915C71.0924 100.821 71.0585 100.74 71.0196 100.673C70.4572 100.168 69.6523 99.6723 68.7262 99.1941C64.7309 97.1516 58.3888 95.5427 58.3888 95.5427C58.3888 95.5427 55.2953 95.4623 56.3572 93.9963C57.4142 92.5304 57.7779 91.0912 57.9475 89.5986C58.0785 88.4097 59.0676 88.441 59.4603 88.5036C59.5622 88.5214 59.6252 88.5394 59.6252 88.5394C59.6252 88.5394 65.5988 75.2656 68.3674 69.6969C68.6874 69.0533 68.9686 68.5126 69.1868 68.1059C71.2184 65.2545 80.2079 65.25 80.2079 65.25C81.7352 65.3304 83.0201 66.1886 84.2178 67.2701C86.0651 69.6299 88.441 72.3293 91.1175 72.2846C94.3758 72.231 95.0401 70.5237 94.2158 68.5975C94.1236 68.3875 94.017 68.1729 93.8958 67.9584C94.4921 68.6199 95.6849 70.2154 98.0608 73.9875C98.6475 74.8188 99.1566 75.6143 99.593 76.374C103.171 82.6221 101.954 86.5952 101.571 89.3841C101.494 89.9517 101.368 90.4076 101.222 90.7785C101.077 91.1361 100.912 91.4132 100.732 91.6366C100.364 92.1148 99.9614 92.3383 99.6996 92.535C99.5105 92.6735 99.3941 92.8032 99.4135 92.9998C100.209 94.8679 99.4135 93.983 99.176 95.878C99.1469 96.106 99.1517 96.6467 99.176 97.4333C99.2535 99.5071 99.5008 103.306 99.8402 107.664C100.218 112.477 100.708 117.974 101.188 122.591L101.188 122.591Z" fill="#FF9C4A"/>
<path d="M101.741 81.7139C101.843 82.1697 101.921 82.6122 101.969 83.0368C101.916 82.6122 101.843 82.1742 101.741 81.7139Z" fill="#21935F"/>
<path d="M101.891 87.3187C101.945 86.9388 101.988 86.5455 102.027 86.1299C101.993 86.5455 101.949 86.9433 101.891 87.3187Z" fill="#21935F"/>
<path d="M111.453 93.2449C110.837 93.6516 109.887 94.1298 108.544 94.7063C106.018 95.7879 104.03 97.7723 102.686 98.8181C102.488 98.97 102.308 99.1041 102.139 99.2114C101.736 99.4661 101.411 99.5778 101.174 99.4572C100.16 98.9477 101.702 97.6069 100.437 96.7443C99.4088 96.0382 100.243 95.4125 100.582 95.2025C100.66 95.1577 100.713 95.131 100.713 95.131L99.6997 92.5343C100.083 92.2438 100.766 91.9041 101.222 90.7779C101.271 90.7734 101.319 90.7645 101.368 90.7466C103.937 89.893 102.958 84.6773 102.444 81.7857C102.323 81.0974 102.182 79.8863 102.003 78.4472C102.003 78.4472 102.003 78.4427 101.998 78.4382C101.668 75.8192 101.188 72.4315 100.374 70.0137C101.135 70.6125 102.303 71.712 102.779 73.1332C103.506 75.3277 106.619 84.5969 108.355 86.0316C109.814 87.2338 109.528 88.1322 109.407 88.3869C109.383 88.4271 109.368 88.4495 109.363 88.4584C109.455 88.3869 110.464 87.6495 110.963 88.2349C111.487 88.8472 110.934 90.8852 111.948 91.5645C112.597 92.0025 112.563 92.5076 111.453 93.245V93.2449Z" fill="#FF9C4A"/>
<path opacity="0.6" d="M97.1202 93.9642C96.7032 94.1742 95.6704 95.1038 93.6485 99.0904C90.8363 104.623 83.9366 102.742 80.9983 110.751C78.4333 117.741 81.4201 130.661 82.2201 133.821C74.5399 133.187 68.1929 131.046 68.1929 131.046C68.1929 131.046 71.3736 116.959 70.9324 113.866C70.4912 110.769 71.3737 111.993 71.6403 108.655C71.907 105.312 71.553 101.647 71.0197 100.673C71.9021 98.6032 72.9397 100.06 72.9397 98.6435C72.9397 97.2267 73.7009 97.0703 74.1082 94.9206C74.5155 92.7664 76.9398 81.8793 76.9398 81.8793C76.9398 81.8793 77.6138 80.5653 76.9108 77.3027C80.3582 79.7787 80.9061 87.515 80.9061 87.515C80.9061 87.515 82.6322 90.3485 86.4918 92.9676C89.9344 95.3005 95.8837 94.2189 97.1202 93.9642H97.1202Z" fill="#FF7748"/>
<path opacity="0.6" d="M102.987 91.2874C102.139 94.617 102.042 97.3656 102.139 99.2115C101.736 99.4662 101.411 99.5779 101.174 99.4573C100.16 98.9478 101.702 97.607 100.437 96.7444C99.176 95.8774 100.713 95.1311 100.713 95.1311L99.6997 92.5344C100.083 92.2439 100.766 91.9042 101.222 90.778C101.271 90.7735 101.319 90.7646 101.368 90.7467C103.937 89.8931 102.958 84.6774 102.444 81.7858C102.323 81.0975 102.182 79.8864 102.003 78.4473C102.953 82.1523 103.942 87.5289 102.987 91.2875L102.987 91.2874Z" fill="#FF7748"/>
<path d="M111.453 93.245C110.837 93.6518 109.887 94.13 108.544 94.7065C106.018 95.7881 104.03 97.7724 102.686 98.8183C102.488 98.9702 102.308 99.1043 102.139 99.2116C101.736 99.4663 101.411 99.578 101.174 99.4574C100.16 98.9479 101.702 97.6071 100.437 96.7445C99.4087 96.0384 100.243 95.4127 100.582 95.2026C101.135 95.0954 102.434 94.5367 105.222 92.0876C107.278 90.2819 108.602 89.1066 109.407 88.387C109.383 88.4272 109.368 88.4496 109.363 88.4585C109.455 88.387 110.464 87.6496 110.963 88.2351C111.487 88.8474 110.934 90.8853 111.947 91.5647C112.597 92.0027 112.563 92.5077 111.453 93.2451V93.245Z" fill="#D86545"/>
<path d="M87.9274 97.5983C87.9274 97.5983 88.3105 98.2375 88.0826 99.3324C87.9177 100.119 86.2838 100.521 85.1928 100.816C84.7564 100.932 84.4073 101.035 84.2763 101.138C83.6411 103.118 82.1187 103.739 81.0907 103.931C80.4992 104.039 80.0725 104.007 80.0725 104.007C80.0725 104.007 75.9414 105.759 71.7133 107.373C68.969 108.414 66.181 109.402 64.4549 109.808C60.0717 110.845 56.0278 110.327 56.0278 107.113C56.0278 103.9 58.3891 95.5425 58.3891 95.5425C58.3891 95.5425 64.7312 97.1514 68.7266 99.1939C68.552 99.6319 68.1932 100.566 68.0235 101.424C68.455 101.424 69.6672 101.209 71.1267 100.915C74.3317 100.266 78.744 99.2252 78.744 99.2252C78.744 99.2252 81.1247 92.8877 81.8956 92.1816C82.0702 92.0207 82.3077 91.8508 82.589 91.6899C83.3745 91.2251 84.4896 90.7961 85.3867 90.6039C85.5661 90.5637 85.7358 90.5324 85.8909 90.5145C87.1225 90.3714 88.2717 92.9592 88.2328 93.7726C88.6547 94.7648 88.194 95.5782 87.9273 96.1101C88.6547 96.6419 87.9273 97.5983 87.9273 97.5983H87.9274Z" fill="#FFE1CC"/>
<path d="M126.464 70.7786C126.498 71.2344 126.319 71.6367 126.047 71.9942L126.435 70.5283C126.45 70.6043 126.459 70.6892 126.464 70.7786H126.464Z" fill="#FFE1CC"/>
<path d="M73.0707 98.219C73.1628 99.7162 72.8864 99.4123 71.8149 99.8011C71.107 100.06 71.5191 100.539 71.3397 100.869C71.267 100.887 71.1991 100.901 71.1263 100.914C71.0924 100.82 71.0585 100.74 71.0197 100.673C70.4572 100.168 69.6523 99.6715 68.7262 99.1933C64.7309 97.1508 58.3888 95.5419 58.3888 95.5419C58.3888 95.5419 55.2953 95.4615 56.3572 93.9955C57.4142 92.5296 57.7779 91.0905 57.9475 89.5978C58.0785 88.4089 59.0676 88.4402 59.4603 88.5028C62.6751 89.5307 70.1711 92.2079 74.0452 95.9084C74.3216 96.6369 72.9785 96.7218 73.0706 98.219H73.0707Z" fill="#D86545"/>
<path d="M85.5753 88.4134C85.3716 88.485 85.1825 88.5475 85.0031 88.6056C84.0673 88.9051 83.4078 89.0034 82.889 88.9319C82.0599 88.8336 81.5799 88.3107 80.9059 87.5151C80.2901 86.6392 82.3605 78.2771 80.0671 72.0291C77.7688 65.7856 73.7152 65.7096 72.2704 66.3666C72.2704 66.3666 72.0765 63.9532 73.9917 64.3063C75.9069 64.6593 77.5021 64.3644 78.9083 63.3633C80.3095 62.3666 84.0139 64.9543 86.9474 71.0727C89.8856 77.1867 88.4941 87.3722 85.5752 88.4135L85.5753 88.4134Z" fill="#21935F"/>
<path d="M85.3865 90.6033C84.4894 90.7955 83.3742 91.2245 82.5887 91.6893C82.516 90.7418 82.7536 89.5307 82.8894 88.9318C83.4082 89.0033 84.0676 88.9049 85.0034 88.6055C85.1052 89.0613 85.2507 89.763 85.3865 90.6032V90.6033Z" fill="#127043"/>
<path d="M85.1923 100.815C84.8772 108.23 84.9935 122.375 84.8772 122.746C84.7366 123.207 80.1158 123.207 80.4698 122.089C80.8237 120.976 83.1705 107.796 82.7438 106.947C82.3171 106.094 74.2828 115.667 73.3567 116.453C73.2695 116.529 73.1822 116.579 73.0949 116.601C72.2609 116.838 71.5045 114.97 71.4366 113.96C71.4221 113.763 71.5094 113.53 71.6839 113.253C72.4888 111.984 75.2235 109.825 79.2625 106.161C79.9995 105.49 80.6007 104.735 81.0905 103.931C82.1184 103.738 83.6409 103.117 84.2761 101.137C84.407 101.034 84.7561 100.932 85.1925 100.815H85.1923Z" fill="#127043"/>
<path d="M103.123 121.509C103.084 122.095 101.969 122.43 101.188 122.591C100.708 117.974 100.219 112.477 99.8405 107.664C99.6805 103.449 99.535 99.8245 99.5108 99.1764C99.4963 98.7831 99.3508 98.1619 99.1763 97.4334C99.152 96.6468 99.1472 96.1061 99.1763 95.8781C99.4138 93.9831 100.209 94.868 99.4138 92.9999C99.3945 92.8032 99.5108 92.6736 99.6999 92.5351C99.9618 92.3384 100.364 92.1149 100.733 91.6367C100.883 93.6166 101.465 100.808 102.139 103.713C102.929 107.105 103.191 120.602 103.123 121.509L103.123 121.509Z" fill="#127043"/>
<path d="M67.0922 121.889C67.7565 121.741 69.0463 121.384 70.2633 120.646C69.8415 123.131 69.313 125.782 68.896 127.784C67.2814 128.213 65.2304 128.566 63.6594 128.204C62.6606 127.976 61.0944 127.645 59.3586 127.122C60.7017 126.407 64.474 124.387 65.6813 123.654C66.5978 123.1 66.9566 122.367 67.0923 121.889H67.0922Z" fill="#0B5631"/>
<path d="M73.0952 116.601C72.8722 118.559 71.6067 119.832 70.2636 120.646C69.0466 121.383 67.7568 121.741 67.0925 121.888C66.8065 121.951 66.6367 121.978 66.6367 121.978C64.8815 119.511 66.4331 114.264 66.8355 113.035C66.8889 112.865 66.9228 112.771 66.9228 112.771C68.6586 112.355 69.8999 112.396 70.8163 112.758C71.146 112.883 71.4321 113.053 71.6842 113.254C71.5097 113.531 71.4224 113.763 71.4369 113.96C71.5048 114.97 72.2612 116.838 73.0952 116.601H73.0952Z" fill="#FFC648"/>
<path d="M68.3674 69.6963C68.0716 70.2907 67.7371 70.9745 67.3783 71.7209C66.8643 72.789 66.3018 73.9868 65.7152 75.2382L65.2788 74.4918C65.2788 74.4918 60.047 70.4695 58.4082 75.9086C56.7644 81.3432 54.7474 82.2281 54.7474 82.2281C54.6358 82.2505 53.0552 82.608 53.22 81.6516C53.3946 80.6594 56.4493 79.5644 56.3959 75.5957C56.362 73.2716 57.2639 72.199 58.7767 71.6181C59.8482 71.2069 61.2253 71.0415 62.7963 70.8449C64.44 70.6393 66.5249 70.1656 68.3674 69.6963Z" fill="#FFC648"/>
<path d="M60.4533 63.9324C60.4533 63.9324 60.2526 66.5835 61.6948 66.9158C62.2268 67.0385 63.4683 65.0359 62.9363 62.5837C62.4042 60.1316 60.276 59.6412 59.0345 61.5211C57.793 63.4011 58.5468 65.6489 58.5468 65.6489C58.5468 65.6489 58.3907 60.8368 61.3193 61.7816C62.6441 62.2091 62.4603 65.975 60.4534 63.9324H60.4533Z" fill="#BC553C"/>
<path d="M133.073 67.0952C132.778 67.484 133.054 68.4136 133.771 69.0169C133.927 69.151 134.101 69.2672 134.3 69.3611C135.401 69.8796 135.018 70.2594 134.145 70.2102C133.907 70.1968 133.66 70.1298 133.417 70.0628C132.782 69.8884 132.205 69.7455 132.021 70.7555C131.885 71.4795 132.283 71.8013 132.768 71.9935C133.209 72.1723 133.723 72.2393 133.97 72.4047C133.577 72.6058 133.209 72.6281 132.574 72.5745C132.365 72.5566 132.123 72.5298 131.842 72.503C130.717 72.3823 130.358 73.446 130.741 73.8483C131.124 74.246 131.279 74.3176 130.794 74.836C130.528 75.1176 130.949 75.4482 131.497 75.779C131.958 76.065 132.511 76.3466 132.816 76.6058C132.869 76.6505 132.86 76.6728 132.797 76.6728L132.196 78.5812L124.21 78.8181L123.793 77.7142L124.68 73.7589L124.859 73.1422C125.233 72.8204 125.713 72.4405 126.047 71.9936C126.319 71.6361 126.498 71.2338 126.464 70.7779C126.459 70.6886 126.45 70.6037 126.435 70.5277C126.358 69.9958 126.164 69.7858 125.8 69.8618L127.938 62.3891C131.347 61.0126 136.942 61.5266 136.942 61.5266L137.427 63.2875L136.113 67.6137C135.561 67.3768 134.95 67.1891 134.421 67.0774C133.752 66.9343 133.209 66.9165 133.073 67.0952L133.073 67.0952Z" fill="#606060"/>
<path d="M137.17 70.966C138.14 72.3828 137.398 73.2587 136.399 73.585C136.889 74.4386 135.58 75.2386 135.58 75.2386C135.58 75.2386 135.978 75.6856 134.261 77.3794C132.962 79.8241 128.322 82.1794 128.322 82.1794C128.322 82.1794 123.119 95.1627 121.034 98.6621C118.954 102.162 112.34 108.258 109.644 107.185C107.385 106.287 103.787 100.62 102.687 98.8185C104.03 97.7727 106.018 95.7884 108.544 94.7068C109.887 94.1302 110.837 93.652 111.453 93.2453L112.345 93.5492C112.345 93.5492 119.298 84.1369 119.681 83.2386C120.064 82.3447 120.627 81.7772 121.087 80.4095C121.548 79.0375 120.19 78.0229 119.987 77.2453C119.783 76.4676 119.347 72.4318 120.064 72.4318C120.782 72.4318 122.804 71.8643 124.317 70.729C124.981 70.2285 125.461 69.929 125.795 69.862H125.8C126.164 69.786 126.358 69.996 126.435 70.5279L126.048 71.9938C125.713 72.4407 125.233 72.8206 124.86 73.1424C124.68 73.2943 124.525 73.4328 124.418 73.5625C124.423 73.6027 124.515 73.6698 124.68 73.7592L123.793 77.7145L124.21 78.8184L132.196 78.5815L132.797 76.6731C132.86 76.6731 132.87 76.6507 132.816 76.6061C132.511 76.3468 131.958 76.0653 131.498 75.7792C130.95 75.4485 130.528 75.1178 130.794 74.8362C131.279 74.3178 131.124 74.2463 130.741 73.8485C130.358 73.4463 130.717 72.3826 131.842 72.5033C132.123 72.53 132.366 72.5569 132.574 72.5748C133.209 72.6284 133.578 72.606 133.97 72.4049C133.723 72.2396 133.209 72.1725 132.768 71.9938C132.283 71.8016 131.885 71.4798 132.021 70.7558C132.206 69.7457 132.783 69.8887 133.418 70.063C133.66 70.1301 133.907 70.1971 134.145 70.2105C135.018 70.2596 135.401 69.8798 134.3 69.3613C134.101 69.2675 133.927 69.1513 133.772 69.0172C133.054 68.4139 132.778 67.4842 133.073 67.0954C133.209 66.9167 133.752 66.9345 134.421 67.0776C134.95 67.1893 135.561 67.377 136.114 67.6139C136.729 67.8731 137.277 68.186 137.578 68.5123C138.499 69.5044 137.631 70.662 137.171 70.9659L137.17 70.966Z" fill="#FFE1CC"/>
<path d="M133.073 67.0952C132.778 67.4839 133.054 68.4136 133.772 69.0169L133.418 70.0627C132.783 69.8884 132.206 69.7454 132.021 70.7555C131.886 71.4795 132.283 71.8013 132.768 71.9935L132.574 72.5745C132.366 72.5566 132.123 72.5298 131.842 72.503C130.717 72.3823 130.358 73.446 130.741 73.8483C131.124 74.246 131.279 74.3175 130.794 74.836C130.528 75.1176 130.95 75.4482 131.498 75.779L131.1 76.9588L124.656 77.2717L126.048 71.9935L126.435 70.5276L128.472 62.8136C130.678 61.7589 136.104 62.0717 136.104 62.0717L134.421 67.0773C133.752 66.9343 133.209 66.9164 133.073 67.0952H133.073Z" fill="#EDEDED"/>
<path d="M64.9584 60.7707C64.8372 60.5517 62.5341 56.5249 57.7484 59.9438C55.8671 61.2846 55.5229 65.8254 55.5229 65.8254C55.5229 65.8254 54.9459 65.7762 54.3689 65.4589C54.6598 63.8812 55.8866 58.7416 59.6249 57.7628C63.9402 56.6321 64.91 60.5561 64.9585 60.7707H64.9584Z" fill="#BC553C"/>
<path d="M61.2651 69.6152C61.705 69.6729 62.1535 69.6168 62.5709 69.4764C63.7779 69.0703 66.287 67.794 66.0327 64.2441C66.0327 64.2441 64.1264 69.8671 60.3613 69.2521C60.3613 69.2521 60.548 69.5212 61.2651 69.6152V69.6152Z" fill="#BC553C"/>
<path d="M98.604 52.3366C98.5895 52.5868 98.5846 52.8282 98.5846 53.0561C98.5846 55.0986 96.0294 57.3868 93.5759 58.9466C92.4801 59.6438 91.3988 60.2024 90.5794 60.5242C90.4048 60.5957 90.2448 60.6538 90.0994 60.6985C89.7648 60.8013 89.503 60.8505 89.3381 60.8326C87.0593 60.7477 84.727 59.9476 82.8554 59.0046C82.7536 58.951 82.6518 58.9019 82.5499 58.8437C82.356 58.7454 82.1669 58.6426 81.9875 58.5399C80.7947 57.856 79.8492 57.1454 79.3353 56.5957C79.1317 56.3811 78.991 56.1935 78.9281 56.0371C78.8456 55.8359 78.8456 55.6572 78.899 55.5007C79.1511 54.7276 80.6542 54.437 79.1802 53.6639C77.4153 52.7298 78.7293 51.9387 78.7293 51.9387C80.5961 50.0348 79.0299 49.0962 78.2202 47.9789C77.4929 46.9689 78.7827 41.7354 79.0396 40.7387C80.4554 39.9967 81.8616 39.2459 83.2143 38.4951C86.0993 40.2203 97.6586 40.4437 98.8368 41.646C99.9908 42.8258 98.7641 48.6583 98.6041 52.3365L98.604 52.3366Z" fill="#FFE1CC"/>
<path d="M90.0992 60.6994C90.0895 60.9318 90.0798 61.1509 90.0798 61.352C89.5853 61.9196 88.6834 62.4291 87.093 62.286C84.9645 62.0938 83.3983 60.1944 82.5498 58.8447C82.6516 58.9029 82.7535 58.952 82.8553 59.0056C84.7269 59.9486 87.0591 60.7486 89.338 60.8336C89.5029 60.8515 89.7647 60.8023 90.0992 60.6995V60.6994Z" fill="#E8CBB8"/>
<path d="M123.844 76.3102C123.83 76.3102 123.819 76.3 123.819 76.2875C123.819 74.842 122.723 74.615 122.712 74.6129L122.653 74.6017L124.114 73.718C125.501 72.8927 126.297 72.0292 126.417 71.2209C126.513 70.5731 126.141 70.1795 126.138 70.1756C126.128 70.1662 126.129 70.1518 126.14 70.1435C126.15 70.1351 126.165 70.136 126.174 70.1453C126.178 70.1493 126.564 70.557 126.466 71.2256C126.343 72.0597 125.561 72.9111 124.141 73.7562L122.775 74.5823C123.002 74.6495 123.869 74.9913 123.869 76.2875C123.869 76.3 123.858 76.3102 123.844 76.3102H123.844Z" fill="#383838"/>
<path d="M84.1079 44.0637C84.9805 43.0254 86.4837 42.4796 87.8898 42.7075C88.3568 42.7733 88.8082 42.9154 89.2376 43.0938C88.803 42.9312 88.3499 42.8011 87.8841 42.7422C86.4811 42.5361 85.0189 43.0644 84.1079 44.0637Z" fill="#383838"/>
<path d="M95.3904 43.9075C95.9983 43.4555 97.0257 43.04 97.6744 43.6426C97.7602 43.7204 97.8261 43.8136 97.8868 43.9075C97.2742 43.0292 96.1476 43.4286 95.3904 43.9075H95.3904Z" fill="#383838"/>
<path d="M87.4414 47.6455C87.5424 46.9253 87.2788 46.3003 86.8526 46.2495C86.4264 46.1987 85.999 46.7414 85.898 47.4616C85.797 48.1818 86.0606 48.8068 86.4868 48.8576C86.913 48.9084 87.3404 48.3657 87.4414 47.6455Z" fill="#383838"/>
<path d="M96.3132 48.2081C96.4037 47.5626 96.1675 47.0025 95.7855 46.9569C95.4036 46.9114 95.0206 47.3978 94.93 48.0432C94.8395 48.6887 95.0757 49.2488 95.4577 49.2943C95.8396 49.3398 96.2226 48.8535 96.3132 48.2081Z" fill="#383838"/>
<path d="M85.0132 54.7402C86.218 56.0752 87.9015 57.1367 89.7963 57.3716C90.719 57.4804 91.6624 57.3847 92.5488 57.1253C91.9069 57.3391 91.1597 57.4473 90.4568 57.4458C89.0268 57.4381 87.6355 56.9294 86.5066 56.1345C85.9547 55.735 85.399 55.2616 85.0132 54.7403V54.7402Z" fill="#383838"/>
<path d="M74.9236 50.7817C74.7827 49.7635 75.3097 49.7794 75.9792 50.4124L75.9916 50.4236L75.9835 50.4383C75.5345 51.3028 75.5683 52.3228 75.8206 53.2352C75.5954 52.5472 75.5277 51.8075 75.6892 51.1008C75.7433 50.8657 75.8191 50.6329 75.9412 50.4176L75.9454 50.4436C75.2914 49.8272 74.84 49.792 74.9237 50.7816L74.9236 50.7817Z" fill="#383838"/>
<path d="M87.062 57.5625C87.6364 58.0311 88.3681 58.3446 89.1421 58.3567C89.1462 58.3564 89.1465 58.3631 89.1421 58.3627C88.4007 58.3747 87.5066 58.1171 87.062 57.5625Z" fill="#383838"/>
<path d="M135.579 75.2667L135.564 75.2559C135.55 75.245 134.08 74.1651 131.337 74.1651C131.324 74.1651 131.313 74.1549 131.313 74.1423C131.313 74.1297 131.324 74.1195 131.337 74.1195C132.78 74.1195 133.86 74.4185 134.512 74.6693C135.141 74.911 135.504 75.156 135.58 75.2097C135.699 75.1285 136.503 74.5407 136.375 73.5874C136.238 72.568 133.991 72.4287 133.969 72.4274C133.955 72.4266 133.945 72.4159 133.945 72.4033C133.946 72.3908 133.959 72.3805 133.972 72.382C133.977 72.3823 134.553 72.4164 135.139 72.579C135.92 72.7959 136.365 73.1427 136.424 73.5818C136.565 74.6336 135.603 75.2509 135.594 75.257L135.579 75.2666L135.579 75.2667Z" fill="#383838"/>
<path d="M134.096 77.219C133.659 77.219 133.294 76.9478 133.288 76.9435C133.278 76.9356 133.276 76.9212 133.285 76.9115C133.293 76.9019 133.309 76.9005 133.319 76.9084C133.322 76.91 133.536 77.0708 133.827 77.1417C134.212 77.2356 134.544 77.1346 134.811 76.841C135.459 76.1285 135.555 75.2444 135.555 75.2355C135.557 75.2231 135.568 75.2139 135.582 75.2149C135.596 75.2161 135.606 75.2271 135.605 75.2396C135.604 75.2486 135.507 76.1465 134.849 76.8703C134.609 77.1341 134.341 77.219 134.096 77.219H134.096Z" fill="#383838"/>
<path d="M136.4 73.608C136.389 73.608 136.379 73.6013 136.376 73.5911C136.372 73.579 136.38 73.5665 136.393 73.5633C136.402 73.5611 137.257 73.344 137.537 72.6842C137.736 72.2172 137.605 71.6433 137.15 70.9785C136.835 70.5187 134.922 70.0058 134.903 70.0007C134.89 69.9971 134.882 69.9846 134.886 69.9725C134.89 69.9604 134.903 69.9535 134.916 69.9569C134.996 69.9781 136.866 70.4799 137.191 70.9542C137.656 71.6321 137.788 72.2198 137.583 72.7011C137.293 73.3825 136.415 73.6051 136.406 73.6073C136.404 73.6078 136.402 73.6081 136.4 73.6081L136.4 73.608Z" fill="#383838"/>
<path d="M137.17 70.9885C137.159 70.9885 137.149 70.9815 137.146 70.971C137.143 70.9588 137.151 70.9466 137.164 70.9436C137.171 70.9422 137.826 70.7785 137.947 69.3044C138.069 67.8286 134.471 67.0991 134.435 67.092C134.421 67.0894 134.413 67.0772 134.416 67.0649C134.418 67.0526 134.431 67.0446 134.445 67.0475C134.454 67.0493 135.372 67.2331 136.263 67.5998C137.449 68.0882 138.049 68.6789 137.997 69.3079C137.872 70.82 137.204 70.9818 137.176 70.988C137.174 70.9885 137.172 70.9887 137.17 70.9887L137.17 70.9885Z" fill="#383838"/>
<path d="M87.9269 97.6201H87.9261L84.364 97.5133C84.3504 97.5129 84.3397 97.5023 84.3401 97.4898C84.3406 97.4773 84.3498 97.4685 84.3656 97.4678L87.9277 97.5746C87.9413 97.575 87.952 97.5856 87.9516 97.5981C87.9511 97.6104 87.9402 97.6201 87.9269 97.6201Z" fill="#383838"/>
<path d="M87.9273 96.1321C87.9254 96.1321 87.9235 96.1319 87.9216 96.1315L84.5646 95.3955C84.5514 95.3926 84.5432 95.3803 84.5463 95.3681C84.5495 95.3559 84.5627 95.3483 84.5761 95.3512L87.933 96.0871C87.9463 96.0901 87.9545 96.1024 87.9514 96.1146C87.9487 96.125 87.9385 96.1321 87.9274 96.1321H87.9273Z" fill="#383838"/>
<path d="M84.3208 101.007C84.3173 101.007 84.3136 101.006 84.3101 101.004C84.2978 100.999 84.2927 100.985 84.2986 100.974C84.3045 100.963 84.9031 99.8365 85.8074 99.7297C85.8212 99.728 85.8333 99.7369 85.8351 99.7494C85.8368 99.7619 85.8272 99.7733 85.8137 99.7749C84.9362 99.8785 84.349 100.983 84.3432 100.994C84.3389 101.002 84.3301 101.007 84.3209 101.007H84.3208Z" fill="#383838"/>
<path d="M86.3754 93.9014C86.3727 93.9014 86.3698 93.9009 86.367 93.9C85.6029 93.6439 84.8511 93.6948 84.8435 93.6954C84.8306 93.697 84.818 93.687 84.817 93.6744C84.8159 93.6619 84.8261 93.6509 84.8397 93.65C84.8473 93.6496 85.6095 93.5977 86.3839 93.8572C86.3967 93.8615 86.4033 93.8746 86.3987 93.8864C86.395 93.8956 86.3856 93.9014 86.3754 93.9014Z" fill="#383838"/>
</svg>
