<svg width="133" height="132" viewBox="0 0 133 132" fill="none" xmlns="http://www.w3.org/2000/svg">
<g filter="url(#filter0_d_34_548)">
<circle cx="66.5" cy="66" r="55" fill="white"/>
</g>
<g clip-path="url(#clip0_34_548)">
<path d="M31.5 91.9692V58.6147C31.9073 57.9627 32.5154 57.8093 33.2495 57.8129C39.0004 57.8294 44.7494 57.8221 50.5003 57.8221C50.7669 57.8221 51.0335 57.8221 51.3659 57.8221V57.013C51.3659 54.7138 51.3787 52.4127 51.3568 50.1135C51.3513 49.4743 51.554 48.9812 52.0106 48.5374C53.2195 47.3613 54.4212 46.1761 55.5827 44.9543C55.8292 44.6932 56.0027 44.2585 56.0137 43.8988C56.0612 42.3976 56.0082 40.8928 56.0447 39.3898C56.0594 38.7579 55.9169 38.2849 55.4238 37.8393C54.6641 37.1508 54.697 36.5372 55.4384 35.7902C56.7387 34.479 58.0463 33.1751 59.363 31.8803C59.6863 31.5607 60.0534 31.2904 60.4003 31C74.1428 31 87.8853 31 101.628 31V45.3543C101.252 45.9898 100.693 46.1816 99.9641 46.1798C93.1888 46.1615 86.4116 46.1688 79.6362 46.1688H78.9148L78.8162 46.3386C79.5997 47.0892 80.4306 47.796 81.1428 48.6068C81.4697 48.9812 81.7071 49.5492 81.7364 50.0459C81.8167 51.4083 81.7638 52.7762 81.7638 54.144C81.7638 55.3457 81.7638 56.5455 81.7638 57.8202H82.6312C88.3803 57.8202 94.1311 57.8276 99.8801 57.8111C100.614 57.8093 101.222 57.9627 101.63 58.6128V91.9674C101.389 92.2669 101.173 92.592 100.903 92.8622C98.4246 95.3478 95.9318 97.8187 93.4572 100.312C92.9934 100.779 92.493 100.998 91.8227 100.998C74.9829 100.987 58.1449 100.987 41.3051 100.998C40.6367 100.998 40.1363 100.779 39.6706 100.312C37.2308 97.8516 34.769 95.4135 32.3236 92.959C32.0223 92.6559 31.7739 92.2998 31.5 91.9674L31.5 91.9692ZM33.8723 60.1925C33.8577 60.3825 33.8358 60.5359 33.8339 60.6893C33.8339 70.6916 33.8285 80.6921 33.8486 90.6945C33.8486 90.9867 34.0312 91.3465 34.243 91.562C36.4528 93.8009 38.679 96.0271 40.9271 98.2278C41.1681 98.4633 41.5864 98.6441 41.9224 98.6441C58.3586 98.6642 74.793 98.6642 91.2292 98.6441C91.547 98.6441 91.9414 98.4798 92.1697 98.257C94.4178 96.0545 96.6477 93.832 98.8501 91.5857C99.0985 91.3319 99.2756 90.8863 99.2775 90.5301C99.2994 80.6648 99.2957 70.7994 99.2957 60.9358C99.2957 60.6948 99.2957 60.4537 99.2957 60.1907H33.8723V60.1925ZM99.2738 33.3759H81.8039V43.7892H99.2738V33.3759ZM79.375 43.8221V33.3285H78.5021C73.0964 33.3285 67.6925 33.3431 62.2869 33.312C61.5217 33.3065 60.9665 33.4892 60.4423 34.0644C59.5767 35.0141 58.6216 35.8834 57.7596 36.7308C59.2115 38.1753 60.5775 39.5359 61.9326 40.8836C62.4823 40.3431 63.0794 39.7587 63.7972 39.0556C63.2621 38.5734 62.6685 38.1589 62.2467 37.611C62.0166 37.3115 61.9344 36.7362 62.0549 36.3765C62.1554 36.0751 62.6448 35.7373 62.9717 35.7245C63.3406 35.7117 63.7972 35.9674 64.0857 36.2432C65.3403 37.4357 66.5347 38.6921 67.7875 39.8865C68.034 40.1221 68.4431 40.2992 68.781 40.3047C71.0382 40.3412 73.2955 40.3175 75.5545 40.3266C76.6558 40.3303 77.0794 40.7649 77.0904 41.8643C77.0977 42.5127 77.0904 43.161 77.0904 43.8239H79.3696L79.375 43.8221ZM58.4097 50.8531V57.7764H74.709V50.8531H58.4097ZM55.9827 57.7892V47.7741C55.254 48.5411 54.6385 49.1456 54.0815 49.7994C53.8825 50.0313 53.7199 50.3801 53.7163 50.6796C53.6834 52.6374 53.6998 54.5951 53.6998 56.5528C53.6998 56.9546 53.6998 57.3582 53.6998 57.7892H55.9845H55.9827ZM79.4298 57.7892C79.4298 55.2799 79.4298 52.8474 79.4262 50.4148C79.4262 50.3071 79.4097 50.1665 79.3422 50.0989C78.6409 49.3775 77.9286 48.6671 77.1361 47.8727V57.791H79.428L79.4298 57.7892ZM60.709 48.4607C60.709 46.7422 60.709 45.0639 60.7053 43.3874C60.7053 43.2797 60.6889 43.1391 60.6213 43.0697C59.9219 42.3501 59.2096 41.6415 58.4097 40.838V48.4607H60.709ZM63.0521 48.448H65.333V40.796C64.5331 41.6288 63.872 42.3081 63.2274 43.0039C63.1306 43.108 63.0612 43.2833 63.0612 43.4258C63.0502 45.0804 63.0539 46.7368 63.0539 48.448H63.0521ZM67.74 48.4644H70.0338V42.6588C69.3617 42.6588 68.7299 42.6387 68.1016 42.6752C67.9738 42.6825 67.7565 42.9071 67.7546 43.0331C67.7309 44.8247 67.7382 46.6181 67.7382 48.4626L67.74 48.4644ZM72.4645 42.7026V48.4425H74.7181V42.7026H72.4645Z" fill="black"/>
<path d="M99.2738 33.376V43.7892H81.8039V33.376H99.2738Z" fill="#55B76B"/>
<path d="M79.375 43.8225H77.0959C77.0959 43.1595 77.1014 42.5112 77.0959 41.8629C77.0831 40.7635 76.6594 40.3307 75.56 40.3252C73.3028 40.3161 71.0437 40.3398 68.7865 40.3033C68.4486 40.2978 68.0395 40.1188 67.793 39.8851C66.5402 38.6907 65.3476 37.4343 64.0912 36.2417C63.8026 35.9678 63.3461 35.7103 62.9772 35.7231C62.6503 35.734 62.1608 36.0737 62.0604 36.375C61.9399 36.7348 62.0202 37.3083 62.2522 37.6096C62.6722 38.1575 63.2675 38.572 63.8026 39.0541C63.0849 39.7572 62.4896 40.3435 61.938 40.8822C60.583 39.5344 59.2169 38.1757 57.7651 36.7293C58.6271 35.882 59.5822 35.0127 60.4478 34.063C60.972 33.4877 61.5253 33.3069 62.2923 33.3106C67.6962 33.3435 73.1019 33.327 78.5076 33.327H79.3805V43.8206L79.375 43.8225Z" fill="#55B76B"/>
<path d="M60.7071 48.4587H58.4079V40.8359C59.2078 41.6395 59.92 42.3481 60.6195 43.0676C60.6871 43.137 60.7035 43.2776 60.7035 43.3854C60.709 45.0619 60.7071 46.7402 60.7071 48.4587Z" fill="#55B76B"/>
<path d="M63.052 48.4479C63.052 46.7367 63.0484 45.0803 63.0593 43.4257C63.0593 43.2832 63.1287 43.1079 63.2255 43.0038C63.8702 42.3099 64.5313 41.6305 65.3312 40.7959V48.4479H63.0502H63.052Z" fill="#55B76B"/>
<path d="M67.74 48.4624C67.74 46.6179 67.7327 44.8263 67.7565 43.033C67.7565 42.9069 67.9756 42.6823 68.1034 42.675C68.7317 42.6367 69.3636 42.6586 70.0356 42.6586V48.4642H67.7418L67.74 48.4624Z" fill="#55B76B"/>
<path d="M72.4645 42.7012H74.7181V48.4411H72.4645V42.7012Z" fill="#55B76B"/>
<path d="M77.7679 71.5624C78.0766 71.3487 78.3213 71.1862 78.5569 71.0127C79.0116 70.6748 79.4883 70.5251 80.0142 70.841C80.542 71.1606 80.6224 71.6592 80.5365 72.2125C80.427 72.9102 80.3429 73.6133 80.1804 74.2981C80.0434 74.877 80.1694 75.3336 80.4963 75.8249C81.9701 78.0437 83.4092 80.2864 84.8592 82.5235C85.3907 83.3435 85.3816 83.6996 84.8063 84.505C83.0312 86.9887 81.2433 89.4633 79.4864 91.9597C79.0481 92.5825 78.5222 92.84 77.7606 92.829C75.4796 92.798 73.1968 92.8181 70.914 92.8181C70.6675 92.8181 70.4209 92.8181 70.0721 92.8181C70.0721 93.2399 70.1598 93.6253 70.0502 93.943C69.9114 94.3412 69.6868 94.7922 69.3581 95.0205C68.9399 95.3109 68.4358 95.1356 68.0468 94.7795C67.9464 94.6863 67.8313 94.6023 67.7565 94.4909C66.7538 93.0171 65.3604 92.6939 63.6346 92.7797C60.8806 92.9167 58.1139 92.798 55.3526 92.8272C54.5856 92.8363 54.0706 92.5606 53.6359 91.9415C51.8919 89.4633 50.1167 87.0088 48.3544 84.5434C47.7335 83.6741 47.7317 83.3727 48.327 82.4505C49.9341 79.965 51.543 77.4794 53.194 74.9263C52.8287 74.6542 52.4781 74.3803 52.1128 74.1283C51.6325 73.7959 51.2764 73.3941 51.4097 72.7677C51.5485 72.1103 52.0562 71.8802 52.6607 71.7852C53.2232 71.6975 53.7838 71.5295 54.3463 71.5186C55.2503 71.5003 55.7489 71.0437 56.2073 70.3078C57.6628 67.9683 59.206 65.6837 60.6834 63.3571C61.0834 62.727 61.5874 62.4732 62.3234 62.4786C65.1522 62.5006 67.9829 62.5024 70.8136 62.4786C71.5843 62.4713 72.0774 62.7654 72.4883 63.4155C74.0716 65.9175 75.697 68.392 77.3077 70.8757C77.4429 71.0839 77.5853 71.2885 77.7716 71.5642L77.7679 71.5624ZM70.063 85.8217C71.1204 85.8217 72.0974 85.6939 73.027 85.8491C74.8076 86.1486 75.8906 85.4254 76.6156 83.8749C76.7763 83.5316 76.7909 83.3326 76.5937 83.0294C75.9362 82.0177 75.2861 81.0004 74.6779 79.9576C74.4113 79.4993 74.0899 79.2783 73.5566 79.2253C72.764 79.1468 71.9806 78.9751 71.1953 78.8382C70.6602 78.745 70.2475 78.4893 70.1251 77.9269C70.0064 77.3772 70.2182 76.9498 70.6748 76.6321C71.1003 76.3344 71.5203 76.0276 71.9166 75.7445C71.9039 75.6331 71.913 75.582 71.8911 75.5473C71.1003 74.2689 70.315 72.9869 69.5097 71.7195C69.0367 70.9762 68.6824 69.9699 67.9957 69.6065C67.2981 69.2376 66.2571 69.4805 65.3696 69.5243C65.1102 69.5371 64.7687 69.7252 64.6281 69.9407C63.8191 71.1789 63.1196 72.4938 62.2631 73.6955C61.5125 74.7492 61.182 75.792 61.6057 77.0521C61.7554 77.4995 61.7609 77.9926 61.8485 78.462C61.949 79.0044 61.8266 79.47 61.3555 79.7805C60.8825 80.0928 60.4058 80.0216 59.9511 79.7075C59.6424 79.4938 59.3283 79.2838 58.9923 79.0537C58.4572 79.9193 57.9623 80.7082 57.4802 81.5081C57.0839 82.1674 56.3881 82.8468 56.4082 83.4987C56.4283 84.158 57.1387 84.8155 57.6007 85.4346C57.7468 85.63 58.0609 85.8053 58.3002 85.8071C60.7418 85.8345 63.1854 85.8327 65.6271 85.8089C65.8864 85.8071 66.1968 85.672 66.3941 85.4967C66.9712 84.9798 67.457 84.3534 68.0706 83.8914C68.3829 83.6558 68.9581 83.5079 69.2923 83.6375C69.6284 83.7672 69.8932 84.2585 70.0411 84.6474C70.1616 84.9652 70.0648 85.3652 70.0648 85.8254L70.063 85.8217ZM55.5736 73.6717C56.1415 74.415 55.9187 75.0432 55.4823 75.7043C53.8898 78.1168 52.3375 80.5548 50.7505 82.971C50.513 83.3307 50.5112 83.5754 50.7669 83.9279C52.2425 85.9514 53.698 87.9895 55.1407 90.0367C55.3782 90.3746 55.6357 90.4969 56.0429 90.4896C57.3195 90.4659 58.5978 90.4805 59.8744 90.4805H63.6912C62.8822 89.6715 62.926 88.9245 63.7077 88.1502C61.5509 88.1502 59.5657 88.1283 57.5824 88.1611C56.8592 88.1739 56.3826 87.9073 56.0064 87.3046C55.3909 86.3203 54.7463 85.3542 54.076 84.4064C53.6323 83.7818 53.6487 83.2266 54.056 82.5856C55.1791 80.8196 56.2767 79.0354 57.356 77.242C57.7431 76.5974 58.1632 76.0769 59.0982 76.2431C58.9211 75.182 58.7585 74.2086 58.5869 73.175C57.5605 73.343 56.6017 73.5 55.5736 73.6699V73.6717ZM58.6837 70.7424C60.0333 70.6201 60.2195 70.7041 60.7912 71.661C61.5326 70.463 62.2868 69.2997 62.9808 68.1017C63.3662 67.4351 63.8647 67.1301 64.6409 67.1538C65.8718 67.1922 67.1045 67.1904 68.3335 67.1538C69.1024 67.1301 69.6046 67.4132 70.0064 68.0779C71.3505 70.295 72.7348 72.4901 74.1209 74.6816C74.5811 75.4085 75.0687 76.1079 74.2853 76.9845C75.3518 77.1617 76.2887 77.3151 77.284 77.4813C77.4593 76.4348 77.6255 75.4395 77.8063 74.3602C76.948 74.5027 76.5407 74.0114 76.1645 73.427C74.4296 70.7278 72.6891 68.0323 70.9232 65.3532C70.7643 65.1121 70.4191 64.8509 70.1543 64.8473C67.7601 64.8089 65.3659 64.8199 62.9717 64.8345C62.7726 64.8345 62.4841 64.9185 62.3891 65.0646C61.1564 66.9183 59.9511 68.7883 58.6818 70.7424H58.6837ZM77.4374 79.9796C78.0127 80.9036 78.5477 81.7912 79.1121 82.6587C79.4956 83.2485 79.4846 83.7818 79.081 84.3626C78.3925 85.3524 77.7259 86.3586 77.0758 87.374C76.7233 87.9256 76.2686 88.1703 75.602 88.1611C73.5493 88.1338 71.4966 88.1374 69.4457 88.1593C68.7792 88.1666 68.1747 88.1009 67.8313 87.5311C67.183 88.1411 66.5584 88.7273 65.9631 89.2879C66.573 89.9143 67.1721 90.528 67.8131 91.1872C68.1874 90.5261 68.8047 90.475 69.4695 90.4787C72.0007 90.4914 74.5318 90.4732 77.063 90.4951C77.5031 90.4987 77.7643 90.3599 78.0145 90.0038C79.3093 88.1593 80.6278 86.3331 81.9391 84.4995C82.4346 83.8068 82.4462 83.097 81.9738 82.3701C81.1702 81.1356 80.3667 79.9029 79.5321 78.6208C79.134 79.8536 79.0445 79.912 77.4374 79.9832V79.9796Z" fill="#55B76B"/>
</g>
<defs>
<filter id="filter0_d_34_548" x="0.5" y="0" width="132" height="132" filterUnits="userSpaceOnUse" color-interpolation-filters="sRGB">
<feFlood flood-opacity="0" result="BackgroundImageFix"/>
<feColorMatrix in="SourceAlpha" type="matrix" values="0 0 0 0 0 0 0 0 0 0 0 0 0 0 0 0 0 0 127 0" result="hardAlpha"/>
<feMorphology radius="1" operator="dilate" in="SourceAlpha" result="effect1_dropShadow_34_548"/>
<feOffset/>
<feGaussianBlur stdDeviation="5"/>
<feComposite in2="hardAlpha" operator="out"/>
<feColorMatrix type="matrix" values="0 0 0 0 0.545098 0 0 0 0 0.823529 0 0 0 0 0.627451 0 0 0 0.4 0"/>
<feBlend mode="normal" in2="BackgroundImageFix" result="effect1_dropShadow_34_548"/>
<feBlend mode="normal" in="SourceGraphic" in2="effect1_dropShadow_34_548" result="shape"/>
</filter>
<clipPath id="clip0_34_548">
<rect width="70.1278" height="70" fill="white" transform="translate(31.5 31)"/>
</clipPath>
</defs>
</svg>
