<svg width="31" height="27" viewBox="0 0 31 27" fill="none" xmlns="http://www.w3.org/2000/svg">
<path d="M30.8125 8.94531C30.8125 18.5156 16.6225 26.2621 16.0182 26.582C15.8589 26.6677 15.6809 26.7126 15.5 26.7126C15.3191 26.7126 15.1411 26.6677 14.9818 26.582C14.3775 26.2621 0.1875 18.5156 0.1875 8.94531C0.190033 6.69797 1.08391 4.54339 2.67303 2.95428C4.26214 1.36516 6.41672 0.471283 8.66406 0.46875C11.4873 0.46875 13.9592 1.68281 15.5 3.73496C17.0408 1.68281 19.5127 0.46875 22.3359 0.46875C24.5833 0.471283 26.7379 1.36516 28.327 2.95428C29.9161 4.54339 30.81 6.69797 30.8125 8.94531Z" fill="white"/>
</svg>
