<svg width="20" height="16" viewBox="0 0 20 16" fill="none" xmlns="http://www.w3.org/2000/svg">
<path d="M18.75 14.25H18.125V4.875C18.125 4.70924 18.0592 4.55027 17.9419 4.43306C17.8247 4.31585 17.6658 4.25 17.5 4.25H12.5C12.3342 4.25 12.1753 4.31585 12.0581 4.43306C11.9408 4.55027 11.875 4.70924 11.875 4.875V8H8.125V1.125C8.125 0.95924 8.05915 0.800269 7.94194 0.683058C7.82473 0.565848 7.66576 0.5 7.5 0.5H2.5C2.33424 0.5 2.17527 0.565848 2.05806 0.683058C1.94085 0.800269 1.875 0.95924 1.875 1.125V14.25H1.25C1.08424 14.25 0.925268 14.3158 0.808058 14.4331C0.690848 14.5503 0.625 14.7092 0.625 14.875C0.625 15.0408 0.690848 15.1997 0.808058 15.3169C0.925268 15.4342 1.08424 15.5 1.25 15.5H18.75C18.9158 15.5 19.0747 15.4342 19.1919 15.3169C19.3092 15.1997 19.375 15.0408 19.375 14.875C19.375 14.7092 19.3092 14.5503 19.1919 14.4331C19.0747 14.3158 18.9158 14.25 18.75 14.25ZM13.125 5.5H16.875V14.25H13.125V5.5ZM11.875 9.25V14.25H8.125V9.25H11.875ZM3.125 1.75H6.875V14.25H3.125V1.75ZM5.625 3.625V4.875C5.625 5.04076 5.55915 5.19973 5.44194 5.31694C5.32473 5.43415 5.16576 5.5 5 5.5C4.83424 5.5 4.67527 5.43415 4.55806 5.31694C4.44085 5.19973 4.375 5.04076 4.375 4.875V3.625C4.375 3.45924 4.44085 3.30027 4.55806 3.18306C4.67527 3.06585 4.83424 3 5 3C5.16576 3 5.32473 3.06585 5.44194 3.18306C5.55915 3.30027 5.625 3.45924 5.625 3.625ZM5.625 7.375V8.625C5.625 8.79076 5.55915 8.94973 5.44194 9.06694C5.32473 9.18415 5.16576 9.25 5 9.25C4.83424 9.25 4.67527 9.18415 4.55806 9.06694C4.44085 8.94973 4.375 8.79076 4.375 8.625V7.375C4.375 7.20924 4.44085 7.05027 4.55806 6.93306C4.67527 6.81585 4.83424 6.75 5 6.75C5.16576 6.75 5.32473 6.81585 5.44194 6.93306C5.55915 7.05027 5.625 7.20924 5.625 7.375ZM5.625 11.125V12.375C5.625 12.5408 5.55915 12.6997 5.44194 12.8169C5.32473 12.9342 5.16576 13 5 13C4.83424 13 4.67527 12.9342 4.55806 12.8169C4.44085 12.6997 4.375 12.5408 4.375 12.375V11.125C4.375 10.9592 4.44085 10.8003 4.55806 10.6831C4.67527 10.5658 4.83424 10.5 5 10.5C5.16576 10.5 5.32473 10.5658 5.44194 10.6831C5.55915 10.8003 5.625 10.9592 5.625 11.125ZM9.375 12.375V11.125C9.375 10.9592 9.44085 10.8003 9.55806 10.6831C9.67527 10.5658 9.83424 10.5 10 10.5C10.1658 10.5 10.3247 10.5658 10.4419 10.6831C10.5592 10.8003 10.625 10.9592 10.625 11.125V12.375C10.625 12.5408 10.5592 12.6997 10.4419 12.8169C10.3247 12.9342 10.1658 13 10 13C9.83424 13 9.67527 12.9342 9.55806 12.8169C9.44085 12.6997 9.375 12.5408 9.375 12.375ZM14.375 12.375V11.125C14.375 10.9592 14.4408 10.8003 14.5581 10.6831C14.6753 10.5658 14.8342 10.5 15 10.5C15.1658 10.5 15.3247 10.5658 15.4419 10.6831C15.5592 10.8003 15.625 10.9592 15.625 11.125V12.375C15.625 12.5408 15.5592 12.6997 15.4419 12.8169C15.3247 12.9342 15.1658 13 15 13C14.8342 13 14.6753 12.9342 14.5581 12.8169C14.4408 12.6997 14.375 12.5408 14.375 12.375ZM14.375 8.625V7.375C14.375 7.20924 14.4408 7.05027 14.5581 6.93306C14.6753 6.81585 14.8342 6.75 15 6.75C15.1658 6.75 15.3247 6.81585 15.4419 6.93306C15.5592 7.05027 15.625 7.20924 15.625 7.375V8.625C15.625 8.79076 15.5592 8.94973 15.4419 9.06694C15.3247 9.18415 15.1658 9.25 15 9.25C14.8342 9.25 14.6753 9.18415 14.5581 9.06694C14.4408 8.94973 14.375 8.79076 14.375 8.625Z" fill="#FFFBFB"/>
</svg>
