<svg width="14" height="14" viewBox="0 0 14 14" fill="none" xmlns="http://www.w3.org/2000/svg">
<path d="M4.66671 5.83301H9.33337M4.08337 8.16634H4.66671M9.33337 8.16634H9.91671" stroke="#333333" stroke-width="0.875" stroke-linecap="round" stroke-linejoin="round"/>
<path d="M1.75 10.4997V6.65551C1.75012 6.49766 1.78227 6.34148 1.8445 6.19642L3.19725 3.04059C3.28711 2.83066 3.43659 2.65172 3.62718 2.52594C3.81776 2.40017 4.04107 2.33308 4.26942 2.33301H9.73058C9.95887 2.33303 10.1821 2.40003 10.3727 2.5257C10.5633 2.65137 10.7128 2.83019 10.8027 3.04001L12.1561 6.19584C12.2183 6.3413 12.2502 6.49789 12.25 6.65609V10.4997M1.75 10.4997V11.8997C1.75 11.9925 1.78687 12.0815 1.85251 12.1472C1.91815 12.2128 2.00717 12.2497 2.1 12.2497H3.73333C3.82616 12.2497 3.91518 12.2128 3.98082 12.1472C4.04646 12.0815 4.08333 11.9925 4.08333 11.8997V10.4997M1.75 10.4997H4.08333M12.25 10.4997V11.8997C12.25 11.9925 12.2131 12.0815 12.1475 12.1472C12.0818 12.2128 11.9928 12.2497 11.9 12.2497H10.2667C10.2207 12.2497 10.1752 12.2406 10.1327 12.223C10.0903 12.2054 10.0517 12.1797 10.0192 12.1472C9.98668 12.1147 9.9609 12.0761 9.94331 12.0336C9.92572 11.9912 9.91667 11.9456 9.91667 11.8997V10.4997M12.25 10.4997H9.91667M4.08333 10.4997H9.91667" stroke="#333333" stroke-width="0.875"/>
</svg>
