<svg width="14" height="20" viewBox="0 0 14 20" fill="none" xmlns="http://www.w3.org/2000/svg">
<path d="M5.125 6.875V14.375C5.125 14.5408 5.05915 14.6997 4.94194 14.8169C4.82473 14.9342 4.66576 15 4.5 15C4.33424 15 4.17527 14.9342 4.05806 14.8169C3.94085 14.6997 3.875 14.5408 3.875 14.375V6.875C3.875 6.70924 3.94085 6.55027 4.05806 6.43306C4.17527 6.31585 4.33424 6.25 4.5 6.25C4.66576 6.25 4.82473 6.31585 4.94194 6.43306C5.05915 6.55027 5.125 6.70924 5.125 6.875ZM7 6.25C6.83424 6.25 6.67527 6.31585 6.55806 6.43306C6.44085 6.55027 6.375 6.70924 6.375 6.875V14.375C6.375 14.5408 6.44085 14.6997 6.55806 14.8169C6.67527 14.9342 6.83424 15 7 15C7.16576 15 7.32473 14.9342 7.44194 14.8169C7.55915 14.6997 7.625 14.5408 7.625 14.375V6.875C7.625 6.70924 7.55915 6.55027 7.44194 6.43306C7.32473 6.31585 7.16576 6.25 7 6.25ZM9.5 6.25C9.33424 6.25 9.17527 6.31585 9.05806 6.43306C8.94085 6.55027 8.875 6.70924 8.875 6.875V14.375C8.875 14.5408 8.94085 14.6997 9.05806 14.8169C9.17527 14.9342 9.33424 15 9.5 15C9.66576 15 9.82473 14.9342 9.94194 14.8169C10.0592 14.6997 10.125 14.5408 10.125 14.375V6.875C10.125 6.70924 10.0592 6.55027 9.94194 6.43306C9.82473 6.31585 9.66576 6.25 9.5 6.25ZM13.25 5V16.25C13.25 16.5815 13.1183 16.8995 12.8839 17.1339C12.6495 17.3683 12.3315 17.5 12 17.5H10.75V18.75C10.75 18.9158 10.6842 19.0747 10.5669 19.1919C10.4497 19.3092 10.2908 19.375 10.125 19.375C9.95924 19.375 9.80027 19.3092 9.68306 19.1919C9.56585 19.0747 9.5 18.9158 9.5 18.75V17.5H4.5V18.75C4.5 18.9158 4.43415 19.0747 4.31694 19.1919C4.19973 19.3092 4.04076 19.375 3.875 19.375C3.70924 19.375 3.55027 19.3092 3.43306 19.1919C3.31585 19.0747 3.25 18.9158 3.25 18.75V17.5H2C1.66848 17.5 1.35054 17.3683 1.11612 17.1339C0.881696 16.8995 0.75 16.5815 0.75 16.25V5C0.75 4.66848 0.881696 4.35054 1.11612 4.11612C1.35054 3.8817 1.66848 3.75 2 3.75H3.875V1.875C3.875 1.37772 4.07254 0.900805 4.42417 0.549175C4.77581 0.197544 5.25272 0 5.75 0L8.25 0C8.74728 0 9.22419 0.197544 9.57583 0.549175C9.92746 0.900805 10.125 1.37772 10.125 1.875V3.75H12C12.3315 3.75 12.6495 3.8817 12.8839 4.11612C13.1183 4.35054 13.25 4.66848 13.25 5ZM5.125 3.75H8.875V1.875C8.875 1.70924 8.80915 1.55027 8.69194 1.43306C8.57473 1.31585 8.41576 1.25 8.25 1.25H5.75C5.58424 1.25 5.42527 1.31585 5.30806 1.43306C5.19085 1.55027 5.125 1.70924 5.125 1.875V3.75ZM12 16.25V5H2V16.25H12Z" fill="#FFFBFB"/>
</svg>
