<svg width="76" height="75" viewBox="0 0 76 75" fill="none" xmlns="http://www.w3.org/2000/svg">
<path d="M52.0625 67.9684C52.0625 68.59 51.8156 69.1862 51.376 69.6257C50.9365 70.0652 50.3404 70.3122 49.7188 70.3122H26.2813C25.6597 70.3122 25.0635 70.0652 24.624 69.6257C24.1844 69.1862 23.9375 68.59 23.9375 67.9684C23.9375 67.3468 24.1844 66.7507 24.624 66.3111C25.0635 65.8716 25.6597 65.6247 26.2813 65.6247H49.7188C50.3404 65.6247 50.9365 65.8716 51.376 66.3111C51.8156 66.7507 52.0625 67.3468 52.0625 67.9684ZM63.7813 30.4684C63.7914 34.3756 62.9087 38.2334 61.2007 41.7475C59.4926 45.2615 57.0044 48.3389 53.9258 50.7448C53.3501 51.186 52.883 51.753 52.5601 52.4025C52.2371 53.0519 52.0669 53.7666 52.0625 54.4919V56.2497C52.0625 57.4929 51.5686 58.6852 50.6896 59.5642C49.8105 60.4433 48.6182 60.9372 47.375 60.9372H28.625C27.3818 60.9372 26.1895 60.4433 25.3104 59.5642C24.4314 58.6852 23.9375 57.4929 23.9375 56.2497V54.4919C23.937 53.7752 23.7722 53.0683 23.4558 52.4253C23.1394 51.7823 22.6798 51.2205 22.1123 50.7829C19.0414 48.3912 16.5548 45.3323 14.8408 41.8377C13.1267 38.3431 12.2301 34.5043 12.2188 30.612C12.1426 16.6491 23.4277 5.02115 37.3789 4.68717C40.8165 4.60433 44.2358 5.20998 47.4358 6.46847C50.6358 7.72696 53.5517 9.61286 56.0118 12.0152C58.472 14.4175 60.4268 17.2877 61.7611 20.4568C63.0954 23.6259 63.7822 27.0299 63.7813 30.4684ZM49.0332 31.154C48.8155 30.9361 48.557 30.7632 48.2725 30.6452C47.988 30.5273 47.683 30.4666 47.375 30.4666C47.067 30.4666 46.762 30.5273 46.4775 30.6452C46.193 30.7632 45.9345 30.9361 45.7168 31.154L38 38.8737L30.2832 31.154C29.8434 30.7142 29.2469 30.4671 28.625 30.4671C28.0031 30.4671 27.4066 30.7142 26.9668 31.154C26.527 31.5938 26.2799 32.1902 26.2799 32.8122C26.2799 33.4341 26.527 34.0306 26.9668 34.4704L35.6563 43.1569V53.9059C35.6563 54.5275 35.9032 55.1237 36.3427 55.5632C36.7823 56.0027 37.3784 56.2497 38 56.2497C38.6216 56.2497 39.2177 56.0027 39.6573 55.5632C40.0968 55.1237 40.3438 54.5275 40.3438 53.9059V43.1569L49.0332 34.4704C49.2511 34.2527 49.424 33.9942 49.5419 33.7097C49.6599 33.4252 49.7206 33.1202 49.7206 32.8122C49.7206 32.5042 49.6599 32.1992 49.5419 31.9147C49.424 31.6301 49.2511 31.3716 49.0332 31.154Z" fill="#55B76B"/>
</svg>
