<svg width="34" height="34" viewBox="0 0 34 34" fill="none" xmlns="http://www.w3.org/2000/svg">
<path fill-rule="evenodd" clip-rule="evenodd" d="M16.64 33.28C25.83 33.28 33.28 25.83 33.28 16.64C33.28 7.44997 25.83 0 16.64 0C7.44997 0 0 7.44997 0 16.64C0 25.83 7.44997 33.28 16.64 33.28Z" fill="#54B175"/>
<path fill-rule="evenodd" clip-rule="evenodd" d="M23.92 15.0803C23.92 20.3381 17.16 24.8447 17.16 24.8447C17.16 24.8447 10.4 20.3381 10.4 15.0803C10.4 11.3469 13.4266 8.32031 17.16 8.32031C20.8935 8.32031 23.92 11.3469 23.92 15.0803Z" fill="#54B175" stroke="white" stroke-width="2" stroke-linecap="round" stroke-linejoin="round"/>
<path fill-rule="evenodd" clip-rule="evenodd" d="M17.1601 17.3338C18.4045 17.3338 19.4134 16.325 19.4134 15.0805C19.4134 13.836 18.4045 12.8271 17.1601 12.8271C15.9156 12.8271 14.9067 13.836 14.9067 15.0805C14.9067 16.325 15.9156 17.3338 17.1601 17.3338Z" fill="#54B175" stroke="white" stroke-width="2" stroke-linecap="round" stroke-linejoin="round"/>
</svg>
