<svg width="25" height="31" viewBox="0 0 25 31" fill="none" xmlns="http://www.w3.org/2000/svg">
<path d="M18.7891 5.52801C17.1003 3.57763 15.1996 1.82137 13.1221 0.291685C12.9382 0.162857 12.7191 0.09375 12.4945 0.09375C12.27 0.09375 12.0509 0.162857 11.867 0.291685C9.79331 1.822 7.8963 3.57825 6.21094 5.52801C2.45254 9.84422 0.46875 14.3942 0.46875 18.6872C0.46875 21.8781 1.73632 24.9383 3.99262 27.1946C6.24892 29.4509 9.30911 30.7184 12.5 30.7184C15.6909 30.7184 18.7511 29.4509 21.0074 27.1946C23.2637 24.9383 24.5312 21.8781 24.5312 18.6872C24.5312 14.3942 22.5475 9.84422 18.7891 5.52801ZM20.1357 19.9641C19.8521 21.5483 19.09 23.0076 17.9519 24.1454C16.8138 25.2833 15.3543 26.0451 13.7701 26.3284C13.7118 26.3378 13.6528 26.3428 13.5938 26.3434C13.3194 26.3434 13.0551 26.2402 12.8532 26.0544C12.6514 25.8685 12.5268 25.6137 12.504 25.3402C12.4813 25.0668 12.5622 24.7949 12.7306 24.5783C12.899 24.3617 13.1427 24.2163 13.4133 24.171C15.6787 23.7895 17.601 21.8673 17.9852 19.5977C18.0337 19.3116 18.194 19.0566 18.4306 18.8886C18.6673 18.7207 18.961 18.6536 19.2471 18.7022C19.5332 18.7508 19.7882 18.9111 19.9562 19.1477C20.1241 19.3844 20.1912 19.6781 20.1426 19.9641H20.1357Z" fill="white" fill-opacity="0.9"/>
</svg>
