<svg width="18" height="18" viewBox="0 0 18 18" fill="none" xmlns="http://www.w3.org/2000/svg">
<path d="M16.475 4.16841L9.6 0.406691C9.41631 0.305193 9.20987 0.251953 9 0.251953C8.79013 0.251953 8.58369 0.305193 8.4 0.406691L1.525 4.16997C1.32866 4.2774 1.16477 4.43557 1.05043 4.62796C0.936094 4.82035 0.875508 5.03992 0.875 5.26372V12.7356C0.875508 12.9594 0.936094 13.179 1.05043 13.3714C1.16477 13.5638 1.32866 13.7219 1.525 13.8293L8.4 17.5926C8.58369 17.6941 8.79013 17.7474 9 17.7474C9.20987 17.7474 9.41631 17.6941 9.6 17.5926L16.475 13.8293C16.6713 13.7219 16.8352 13.5638 16.9496 13.3714C17.0639 13.179 17.1245 12.9594 17.125 12.7356V5.2645C17.1249 5.0403 17.0645 4.82025 16.9502 4.62741C16.8358 4.43456 16.6717 4.27603 16.475 4.16841ZM9 1.50044L15.2766 4.93794L12.9508 6.21138L6.67344 2.77388L9 1.50044ZM9 8.37544L2.72344 4.93794L5.37187 3.48794L11.6484 6.92544L9 8.37544ZM2.125 6.03169L8.375 9.452V16.1543L2.125 12.7364V6.03169ZM15.875 12.7333L9.625 16.1543V9.45513L12.125 8.08716V10.8754C12.125 11.0412 12.1908 11.2002 12.3081 11.3174C12.4253 11.4346 12.5842 11.5004 12.75 11.5004C12.9158 11.5004 13.0747 11.4346 13.1919 11.3174C13.3092 11.2002 13.375 11.0412 13.375 10.8754V7.40279L15.875 6.03169V12.7325V12.7333Z" fill="#FFFBFB"/>
</svg>
