<svg width="76" height="75" viewBox="0 0 76 75" fill="none" xmlns="http://www.w3.org/2000/svg">
<path d="M66.125 16.4062H52.0625V4.6875C52.0625 4.0659 51.8156 3.46976 51.376 3.03022C50.9365 2.59068 50.3404 2.34375 49.7188 2.34375C49.0971 2.34375 48.501 2.59068 48.0615 3.03022C47.6219 3.46976 47.375 4.0659 47.375 4.6875V16.4062H28.625V4.6875C28.625 4.0659 28.3781 3.46976 27.9385 3.03022C27.499 2.59068 26.9029 2.34375 26.2812 2.34375C25.3408 2.34375 23.9375 3.00879 23.9375 4.8457V16.4062H10.0361C8.19922 16.4062 7.53125 17.8066 7.53125 18.75C7.53125 19.3716 7.77818 19.9677 8.21772 20.4073C8.65726 20.8468 9.2534 21.0938 9.875 21.0938H14.5625V46.875C14.5625 49.983 15.7972 52.9637 17.9948 55.1614C20.1925 57.3591 23.1732 58.5938 26.2812 58.5938H35.6562V70.3125C35.6562 70.9341 35.9032 71.5302 36.3427 71.9698C36.7823 72.4093 37.3784 72.6562 38 72.6562C38.6216 72.6562 39.2177 72.4093 39.6573 71.9698C40.0968 71.5302 40.3438 70.9341 40.3438 70.3125V58.5938H49.7188C52.8268 58.5938 55.8075 57.3591 58.0052 55.1614C60.2029 52.9637 61.4375 49.983 61.4375 46.875V21.0938H66.125C66.7466 21.0938 67.3427 20.8468 67.7823 20.4073C68.2218 19.9677 68.4688 19.3716 68.4688 18.75C68.4688 18.1284 68.2218 17.5323 67.7823 17.0927C67.3427 16.6532 66.7466 16.4062 66.125 16.4062ZM44.8818 38.3232L41.3662 47.6982C41.1479 48.281 40.707 48.7531 40.1405 49.0108C39.5741 49.2685 38.9285 49.2906 38.3457 49.0723C37.7629 48.8539 37.2908 48.413 37.0331 47.8466C36.7754 47.2801 36.7533 46.6345 36.9717 46.0518L39.3154 39.8438H33.3125C32.9338 39.8437 32.5607 39.7519 32.2252 39.5762C31.8897 39.4005 31.6018 39.1461 31.3861 38.8348C31.1704 38.5235 31.0333 38.1646 30.9867 37.7887C30.94 37.4129 30.9851 37.0314 31.1182 36.6768L34.6338 27.3018C34.8521 26.719 35.293 26.2469 35.8595 25.9892C36.4259 25.7315 37.0715 25.7094 37.6543 25.9277C38.237 26.1461 38.7092 26.587 38.9669 27.1534C39.2246 27.7199 39.2467 28.3655 39.0283 28.9482L36.6846 35.1562H42.6875C43.0662 35.1563 43.4393 35.2481 43.7748 35.4238C44.1103 35.5995 44.3982 35.8539 44.6139 36.1652C44.8296 36.4765 44.9667 36.8354 45.0133 37.2113C45.06 37.5871 45.0149 37.9686 44.8818 38.3232Z" fill="#55B76B"/>
</svg>
