<svg width="76" height="75" viewBox="0 0 76 75" fill="none" xmlns="http://www.w3.org/2000/svg">
<path d="M29.7969 60.9378C29.7969 61.8702 29.4265 62.7644 28.7672 63.4237C28.1079 64.083 27.2137 64.4534 26.2813 64.4534H12.2188C10.7793 64.4524 9.36538 64.0727 8.11911 63.3523C6.87284 62.632 5.83807 61.5963 5.11875 60.3495C4.39942 59.1026 4.02087 57.6884 4.02111 56.2489C4.02135 54.8094 4.40037 53.3954 5.12012 52.1487L13.748 37.2425L12.3535 37.6145C11.9042 37.7448 11.4334 37.784 10.9687 37.7299C10.504 37.6759 10.0548 37.5297 9.64738 37.2998C9.23994 37.0699 8.88248 36.761 8.59594 36.3912C8.3094 36.0215 8.09954 35.5982 7.97866 35.1463C7.85778 34.6943 7.82832 34.2228 7.89199 33.7594C7.95566 33.2959 8.11119 32.8498 8.34946 32.4472C8.58773 32.0447 8.90396 31.6937 9.27961 31.4149C9.65526 31.136 10.0828 30.935 10.5371 30.8235L20.1377 28.2542C21.0378 28.0134 21.9967 28.1399 22.8037 28.6057C23.6107 29.0715 24.1997 29.8387 24.4414 30.7386L27.0166 40.3392C27.1513 40.7895 27.1943 41.2623 27.1431 41.7296C27.0919 42.1968 26.9475 42.6491 26.7184 43.0596C26.4894 43.4701 26.1803 43.8304 25.8096 44.1194C25.4388 44.4084 25.0139 44.6201 24.5599 44.7419C24.1059 44.8638 23.6321 44.8934 23.1665 44.829C22.7008 44.7645 22.2528 44.6073 21.849 44.3668C21.4452 44.1262 21.0937 43.807 20.8154 43.4282C20.537 43.0494 20.3375 42.6187 20.2285 42.1614L19.8594 40.7229L11.2168 55.6643C11.1145 55.8415 11.0603 56.0425 11.0598 56.2471C11.0592 56.4517 11.1122 56.6529 11.2135 56.8307C11.3149 57.0084 11.461 57.1566 11.6373 57.2604C11.8137 57.3641 12.0141 57.4199 12.2188 57.4222H26.2813C27.2137 57.4222 28.1079 57.7926 28.7672 58.4519C29.4265 59.1112 29.7969 60.0054 29.7969 60.9378ZM38 10.5472C38.2063 10.5434 38.4097 10.5959 38.5883 10.6992C38.767 10.8024 38.914 10.9524 39.0137 11.1331L47.6416 26.0364L46.25 25.6643C45.7982 25.5267 45.3233 25.4816 44.8536 25.5316C44.384 25.5816 43.9292 25.7257 43.5165 25.9553C43.1038 26.1849 42.7415 26.4953 42.4514 26.868C42.1613 27.2407 41.9493 27.6681 41.828 28.1245C41.7067 28.581 41.6786 29.0572 41.7454 29.5248C41.8122 29.9923 41.9726 30.4416 42.2169 30.8458C42.4611 31.25 42.7844 31.6009 43.1673 31.8774C43.5501 32.154 43.9848 32.3505 44.4453 32.4554L54.0459 35.0306C54.946 35.2713 55.9049 35.1449 56.7119 34.6791C57.5189 34.2132 58.1079 33.4461 58.3496 32.5462L60.9102 22.9397C61.1518 22.0384 61.0255 21.078 60.559 20.2698C60.3281 19.8696 60.0206 19.5189 59.654 19.2375C59.2875 18.9562 58.8691 18.7498 58.4229 18.6302C57.5215 18.3885 56.5611 18.5148 55.7529 18.9813C54.9447 19.4477 54.3549 20.2162 54.1133 21.1175L53.7295 22.5413L45.0986 7.61747C44.3779 6.37301 43.3427 5.33988 42.0968 4.62166C40.8509 3.90345 39.4381 3.52539 38 3.52539C36.5619 3.52539 35.1491 3.90345 33.9032 4.62166C32.6573 5.33988 31.6221 6.37301 30.9014 7.61747L24.1162 19.3362C23.8673 19.7364 23.7014 20.1826 23.6284 20.6482C23.5554 21.1138 23.5767 21.5893 23.6912 22.0465C23.8056 22.5037 24.0108 22.9332 24.2945 23.3095C24.5783 23.6858 24.9348 24.0012 25.3429 24.2369C25.7509 24.4727 26.2022 24.624 26.67 24.6819C27.1377 24.7398 27.6123 24.703 28.0655 24.5738C28.5187 24.4446 28.9413 24.2255 29.3082 23.9297C29.6751 23.6339 29.9788 23.2674 30.2012 22.8518L36.9863 11.1331C37.086 10.9524 37.2331 10.8024 37.4117 10.6992C37.5903 10.5959 37.7937 10.5434 38 10.5472ZM70.8682 52.1487L64.0889 40.43C63.8665 40.0145 63.5628 39.6479 63.1959 39.3521C62.829 39.0563 62.4064 38.8373 61.9532 38.7081C61.5 38.5788 61.0254 38.5421 60.5577 38.5999C60.0899 38.6578 59.6386 38.8091 59.2305 39.0449C58.8225 39.2806 58.466 39.5961 58.1822 39.9723C57.8985 40.3486 57.6933 40.7782 57.5789 41.2353C57.4644 41.6925 57.4431 42.168 57.5161 42.6336C57.5891 43.0992 57.755 43.5454 58.0039 43.9456L64.7832 55.6643C64.886 55.8424 64.9402 56.0444 64.9402 56.25C64.9403 56.4556 64.8862 56.6576 64.7835 56.8357C64.6808 57.0138 64.533 57.1618 64.355 57.2647C64.1771 57.3676 63.9751 57.4219 63.7695 57.4222H46.4961L47.5244 56.3938C47.8514 56.0668 48.1108 55.6786 48.2878 55.2513C48.4648 54.824 48.5559 54.3661 48.5559 53.9036C48.5559 53.4411 48.4648 52.9832 48.2878 52.5559C48.1108 52.1286 47.8514 51.7404 47.5244 51.4134C47.1974 51.0863 46.8092 50.8269 46.3819 50.65C45.9546 50.473 45.4967 50.3819 45.0342 50.3819C44.5717 50.3819 44.1137 50.473 43.6865 50.65C43.2592 50.8269 42.871 51.0863 42.5439 51.4134L35.5127 58.4446C35.1849 58.7712 34.9249 59.1593 34.7475 59.5867C34.57 60.014 34.4787 60.4721 34.4787 60.9349C34.4787 61.3976 34.57 61.8557 34.7475 62.283C34.9249 62.7104 35.1849 63.0985 35.5127 63.4251L42.5439 70.4563C42.871 70.7834 43.2592 71.0428 43.6865 71.2197C44.1137 71.3967 44.5717 71.4878 45.0342 71.4878C45.4967 71.4878 45.9546 71.3967 46.3819 71.2197C46.8092 71.0428 47.1974 70.7834 47.5244 70.4563C47.8514 70.1293 48.1108 69.7411 48.2878 69.3138C48.4648 68.8865 48.5559 68.4286 48.5559 67.9661C48.5559 67.5036 48.4648 67.0457 48.2878 66.6184C48.1108 66.1911 47.8514 65.8029 47.5244 65.4759L46.4961 64.4534H63.7812C65.2207 64.4524 66.6346 64.0727 67.8809 63.3523C69.1272 62.632 70.1619 61.5963 70.8813 60.3495C71.6006 59.1026 71.9791 57.6884 71.9789 56.2489C71.9787 54.8094 71.5996 53.3954 70.8799 52.1487H70.8682Z" fill="#55B76B"/>
</svg>
