<svg width="29" height="29" viewBox="0 0 29 29" fill="none" xmlns="http://www.w3.org/2000/svg">
<path d="M14.5 0.28125C11.6878 0.28125 8.93875 1.11517 6.60049 2.67754C4.26222 4.23992 2.43977 6.46058 1.36359 9.05872C0.287405 11.6569 0.00582635 14.5158 0.55446 17.2739C1.10309 20.0321 2.4573 22.5656 4.44583 24.5542C6.43435 26.5427 8.96789 27.8969 11.7261 28.4455C14.4842 28.9942 17.3431 28.7126 19.9413 27.6364C22.5394 26.5602 24.7601 24.7378 26.3225 22.3995C27.8848 20.0613 28.7188 17.3122 28.7188 14.5C28.7148 10.7302 27.2154 7.11589 24.5498 4.45022C21.8841 1.78455 18.2698 0.285231 14.5 0.28125ZM5.51621 22.4939L5.86074 22.2684C6.1616 22.0699 6.40876 21.8002 6.58025 21.4832C6.75175 21.1662 6.84226 20.8118 6.84375 20.4514L6.87246 15.498L9.73809 11.2188C9.75212 11.2296 9.76673 11.2396 9.78184 11.2488L12.4711 13.0084C12.9218 13.3265 13.4763 13.4618 14.0229 13.3871L18.3281 12.8033C18.859 12.7325 19.3455 12.4693 19.6953 12.0637L22.7264 8.5418C23.0653 8.14464 23.2511 7.63933 23.25 7.11719V6.25176C24.7294 7.81691 25.7608 9.75096 26.2363 11.8515C26.7119 13.952 26.614 16.1417 25.9529 18.1914L23.7463 16.1734C23.4395 15.8919 23.0588 15.7037 22.6487 15.631C22.2387 15.5584 21.8165 15.6043 21.4316 15.7633L17.2672 17.4928C16.919 17.6389 16.6143 17.8723 16.3825 18.1705C16.1507 18.4686 15.9996 18.8214 15.9438 19.1949L15.617 21.4084C15.5385 21.9412 15.6592 22.4842 15.9561 22.9335C16.253 23.3828 16.7053 23.7067 17.2262 23.8434L20.1602 24.6172L20.4828 24.9412C18.087 26.3159 15.2906 26.823 12.5646 26.3773C9.83861 25.9315 7.34944 24.5601 5.51621 22.4939Z" fill="white" fill-opacity="0.9"/>
</svg>
